<?xml version="1.0" encoding="utf-8"?>
<!-- Generator: Adobe Illustrator 21.0.0, SVG Export Plug-In . SVG Version: 6.00 Build 0)  -->
<svg version="1.1" id="Capa_1_2_" xmlns="http://www.w3.org/2000/svg" xmlns:xlink="http://www.w3.org/1999/xlink" x="0px" y="0px"
	 viewBox="0 0 864.6 742.1" style="enable-background:new 0 0 864.6 742.1;" xml:space="preserve">
<style type="text/css">
	.st0{fill:#55C0E5;}
	.st1{fill:#EA68B2;stroke:#EA68B2;stroke-width:8.5635;stroke-miterlimit:10;}
	.st2{font-family:'White-Apparel';}
	.st3{font-size:337.8326px;}
	.st4{fill:#231716;}
	.st5{fill:#635F61;}
	.st6{fill:#BDB4B2;}
	.st7{fill:#C497DD;}
	.st8{fill:#EA68B2;}
</style>
<g id="_x39_4f3cb2761f960dad11973b414f43a1c_xA0_Imagen_1_">
</g>
<g id="G_xA0_Imagen_1_">
</g>
<g id="G_copia__x2B__fondo-dorado-1_xA0_Imagen_1_">
</g>
<g id="GEN">
</g>
<g id="GRED">
</g>
<g id="EXLUSIVE__x0D____BY_GEN__x26__GRED">
	<path class="st0" d="M513.6,649.8c-2.7-7.6-1.2-15.8-3.7-22.5c-6-16-6.9-32.6-8.3-49c-1-11.5-5.5-23.5,0.8-35.1
		c0.9-1.6,0.2-4-1.8-5.2c-3.5-2-3.8-5.3-4.4-8.8c-1.3-8.1-2.4-16.3-3.7-24.3c-4.4-25.3-1.7-50.3,0.6-75.4c0.6-7.1,5.8-4.2,17.1-16.6
		c6.7-7.4,10.6-13,12.9-17.1c-0.8-1.1-1.3-2.4-1.3-4.1c0-7.1,1.9-14,3.8-20.8c0.8-3,2.2-5.7,3.6-8.4c0.2-1.1,0.4-2.2,0.7-3.3
		c-1-8.8-2.3-16.5-4.6-16.7c-5.5-0.5-10.6,44.1-27.4,47.1c-2.2,0.4-13.3,2.8-16.6,6.6c-1.3,1.5-1.7,4.5-4.9,3.1
		c-2.6-1.1-4.7-2.8-5.1-5.8c-1-6.1,1.2-11.4,6-14.7c2.8-2,4.3-4.4,6.1-6.9c4.3-5.9,1.6-12.9,3.2-19.2c3.5-14-4.9-24.9-19.2-26.3
		c-3.7-0.4-7.3,0.1-10.9,0.2c-6.3,0.1-11.5,3.4-15.3,7.8c-3.9,4.5-5.2,10-4.8,16.7c0.6,9.5,1.1,18.3,5.4,27.3
		c7.1,15,2.5,22.1-14,25.9c-0.2,0.1-0.5,0.1-0.7,0.1c-14.2,3.2-17.5,7.7-20.8,21.8c-3.7,15.4,1.7,31.8-5.3,46.7
		c-0.4,0.8,0,1.9,0.2,2.9c2.2,9,3.7,18.2,7.6,26.7c1.9,4.1,3,8.4,2.2,12.8c-1.5,8.1,2.6,14.7,7.2,20c3.5,3.9,4.1,7.4,3.5,11.6
		c-1.6,11-0.8,22.2,0.4,32.9c3.6,30.8-3.3,60.7-5.1,91.1c-0.1,1.6-1,3.3-1.6,4.8c-3.9,10.1-3.1,11.8,7.5,14.4
		c-3.3,5-6.8,9.6-11.7,12.9c-5,3.3-5.1,6.7-0.2,10.2c12.5,4.1,21.3,2.2,26.6-6c2.5-2.6,6.8-3.3,7.6-7.5c0.9-4.6-3-11,5.4-12.4
		c0.3-0.1,0.3-1.8,0.5-2.7c2.4-13.5,2-27,2-40.6c0.1-27.9,2.3-55.7,3.9-83.6c0.2-4.2,0.6-8.7,3.3-12.2c2.3,0.2,2.2,1.9,2.6,3.3
		c5.6,19.5,7.9,39.7,13.1,59.2c2.2,8.5-1.1,16.5,0.2,24.7c2.3,14.6,6.3,28.8,10.6,42.9c1.4,4.5,2.9,8.8,7.2,11.5
		c4.9,3.1,10.1,6,15.3,1.1c5-4.7,2.7-10-0.1-14.7c-2.7-4.5-6-8.7-6.3-14.2C510.6,661.1,515.8,656.3,513.6,649.8z"/>
	<g>
		<path class="st0" d="M379.4,303.1l4.3,3.5c4.3-1.7,8.6-3.6,13-5c3.2-1,6.4-2.1,9.6-3.1c-2.6-2.4-5.6-4.8-8.8-7.4l-6-4.7
			c-20.5-16-26-23.7-26-35.9c0-15.6,11.5-24.8,26.3-24.8c19.6,0,25.4,9,26.7,11.3c1.3,2.3,2.6,8.1,2.8,10.7c0.2,1.7,0.4,2.8,1.7,2.8
			c1.1,0,1.5-1.5,1.5-4.9c0-14.5,0.9-21.6,0.9-22.6c0-1.1-0.4-1.5-2.1-1.5s-3.4-0.2-7.5-1.1c-5.3-1.3-11.5-2.1-19.9-2.1
			c-27.1,0-44.2,15.6-44.2,38.4C351.6,271.2,356.8,284.5,379.4,303.1z"/>
		<path class="st0" d="M407.6,315.8c-3.1,1.2-6.1,2.3-9.2,3.5c11.1,10.5,15.1,18.3,15.1,30.1c0,13.7-10,28.4-30.5,28.4
			c-14.3,0-28.4-6-31.6-21.8c-0.6-3-0.6-6-0.6-7.9c0-1.7-0.2-2.3-1.5-2.3c-1.1,0-1.5,1.1-1.7,3.4c-0.2,3.4-1.1,12-1.1,22.6
			c0,5.8,0.2,6.6,3.2,8.1c8.8,4.3,18.6,5.8,28.6,5.8c11.5,0,23.1-2.6,32.2-9c14.7-10.5,18.1-26.7,18.1-35.4c0-9.7-1.9-18.2-8.2-27.3
			C416.2,314.2,411.9,314.9,407.6,315.8z"/>
	</g>
	<text transform="matrix(1 0 0 1 134.9194 388.7491)" class="st1 st2 st3">S</text>
	<path class="st4" d="M447.5,263.6c0.3-0.5,0.8-0.9,1.1-1.4C448.2,262.7,447.8,263.2,447.5,263.6z"/>
	<path class="st4" d="M448.6,262.1c0-0.1,0.1-0.1,0.1-0.2C448.7,262,448.7,262,448.6,262.1z"/>
	<path class="st5" d="M220.6,306.2c1,0.9,2,1.8,2.9,2.8c-0.2,0.2-0.4,0.4-0.6,0.6c-1.2-0.4-1.3-1.8-2.4-2.4
		C220.6,306.8,220.6,306.5,220.6,306.2z"/>
	<path class="st6" d="M447.8,263.8c-0.2-0.2-0.3-0.3-0.5-0.5c0.6-0.9,1.3-1.7,2.2-3C449.3,262.1,448.6,263,447.8,263.8z"/>
	<path class="st7" d="M612.1,650.7c-0.6,0.5-1.3,0.7-2,0.9c0.2,0.9,0.4,1.8,0.6,2.7c0.3-0.5,0.7-0.9,1.2-1.3
		c0.1-0.3,0.2-0.6,0.3-0.9c0.3-0.6,0.7-1.3,1.1-1.8c-0.1,0-0.3-0.1-0.4-0.1C612.6,650.3,612.4,650.5,612.1,650.7z"/>
	<g>
		<path class="st8" d="M645.5,377.5c-1.1,1.2-2,2.1-2.7,2.8c-0.6,0.7-1.4,1.6-2.2,2.7c-0.8,1.1-1.5,2.2-1.9,3.3
			c-0.6,1.3-0.6,2.2-0.2,2.6c0.1,0.1,0.3,0.2,0.4,0.2c0.2,0,0.4,0,0.6-0.1c0.3-0.1,0.5-0.2,0.7-0.3c0.2-0.1,0.4-0.2,0.7-0.4
			c0.3-0.2,0.5-0.4,0.7-0.5c0.2-0.1,0.4-0.3,0.6-0.5c0.3-0.2,0.4-0.3,0.4-0.3c1.6-1.1,3-2.2,4.3-3.4c2.7-2.4,5.2-5.2,7.5-8.3
			c1.3-1.9,2.4-3.7,3.2-5.3c0.5-1.1,0.8-2.2,1-3.3c-0.5,0.3-1,0.7-1.6,1.1C652.8,370.8,649,374,645.5,377.5z"/>
		<path class="st8" d="M701.1,371.4c-3.1-6-6-12.2-8.9-18.3c-4.8-9.9-9.5-19.8-14.2-29.7c-0.7-1.4-1.7-1.9-3.2-1.5
			c-1.7,0.4-3.5,0.7-5.2,1.1c-2.5,0.6-2.7,0.5-3.6-2c-1-2.8-2.1-5.5-3.3-8.3c-5.5-13.1-11.1-26.2-18.7-38.3
			c-1.4-2.3-1.4-2.3,1.1-3.5c3.4-1.7,6.8-3.4,10.1-5.3c1.7-1,2.6-2.3,2.2-4.4c-0.3-1.8-0.3-3.5,0-5.3c0.5-2.9,0-5.6-1-8.3
			c-2.1-5.4-4.9-10.5-8-15.4c-7.4-11.7-14.6-23.5-19.8-36.4c-2.2-5.3-5.4-10-9.7-13.7c-4.6-4-9.7-7.1-16.2-6.5
			c-2.8,0.3-5.5,0.7-8.2,1.3c-2.1,0.5-4.2,0.9-6.5,1.4c2-6.2,1.3-12.4,2.6-18.6c0.9,1.4,1.9,2.4,3.1,3.3c4.7,3.3,10.6,1.2,11.9-4.2
			c0.7-3.2-1.2-6.9-4.3-8c-0.7-0.2-1.5-0.6-2,0c-0.5,0.6,0.1,1.2,0.4,1.8c0.3,0.4,0.6,0.9,0.8,1.3c1,2.3-0.1,4-2.6,3.8
			c-2-0.2-3.6-1.2-4.7-2.9c-1.4-2.2-2-4.6-1.8-7.2c0.5-4.6,0.4-9.2,0.3-13.8c-0.1-5.8-0.9-11.6-3.3-17c-2.4-5.5-6.3-9.4-12.1-11
			c-1.2-0.3-2-1-2.7-1.9c-1.3-1.6-2.6-3.1-4.2-4.4c-3.5-2.7-7.4-4.4-11.9-4.7H549c-0.2,0.1-0.3,0.2-0.5,0.2
			c-6.2,0-11.2,2.7-15.8,6.4c-0.7,0.6-1.5,1.1-1.6,2.1c0.1,0.3,0.3,0.5,0.6,0.6c1.1,0.1,1.8-0.6,2.7-1.1c2.9-1.7,5.8-3.2,8.8-4.1
			c-0.7,0.3-1.4,0.6-2.1,1c-9.6,4.5-17,11.1-20.9,21.3c-2.2,5.8-3.9,11.7-5.3,17.8c-1.7,7-3.1,14-4.9,21c-1.2,4.7-3.7,8.7-7.3,11.9
			c-2.3,2-4.7,4.1-7.2,5.8c-8,5.5-11.3,13.4-12.3,22.6c-0.1,0.7-0.4,1.7,0.5,1.9c1,0.2,1.1-0.9,1.4-1.6c0.1-0.1,0.1-0.3,0.1-0.4
			c1.6-5.7,4.7-10.4,9.2-14.2c2.9-2.4,5.9-4.6,9.6-6.5c-1.4,3.9-2.9,7.3-5.6,10c-2.7,2.8-5.8,5.2-8.9,7.5c-0.5,0.4-1.5,0.8-1,1.7
			c0.4,0.7,1.3,0.3,2,0.1c0.7-0.2,1.4-0.5,2-0.8c3.4-1.8,6.8-3.7,9.5-6.3c-0.5,0.6-0.9,1.4-1.3,2.1c-2.8,6.5-7,12.1-11.8,17.2
			c-3.9,4.1-8.3,7.5-14.1,8.5c-0.7,0.1-1.4,0.2-2.1,0.3c-0.4,0.1-0.8,0.2-0.9,0.6c-0.1,0.6,0.4,0.8,0.8,1c2.5,1,5,1.1,7.2,0.4
			c-1.9,1.3-4.2,2.8-6.8,3.6c-3.2,0.9-6.5,1.3-9.4-1c-0.5-0.4-1.1-1-1.7-0.4c-0.5,0.6,0,1.3,0.3,1.8c1.8,2.8,4.3,4.4,7.6,4.6
			c2.8,0.2,5.5,0,8.3-1.1c-3.1,5.2-4.5,10.8-5.5,16.6c-0.1,0.9-0.6,2.1,0.5,2.4c1.1,0.3,1.3-1.1,1.7-1.9c1.4-3.1,2.7-6.2,4.1-9.1
			c-0.2,0.4-0.3,0.9-0.4,1.4c-0.8,2.9-1.8,5.8-2.6,8.7c-1.2,4.4-3.9,7.5-8.1,9.4c-2.3,1.1-4.7,2.1-6.9,3.3
			c-7.3,4-12.3,9.5-11.5,18.5c0.3,3.3,1.6,6.1,4.2,8.2c0.6,0.5,1.2,0.9,1.9,0.9c0.7,0,1.1-0.4,0.8-1.2c-0.2-0.4-0.5-0.8-0.8-1.1
			c-2.8-2.8-3.1-6.2-1.8-9.7c2.3-6.2,7.8-9,13.6-11.7c-0.5,1.8-1.4,2.8-2.5,3.7c-1.5,1.2-3.2,2.1-5,2.7c-0.6,0.2-1.5,0.3-1.4,1.1
			c0.1,0.8,1,0.7,1.6,0.8c0.3,0,0.5,0,0.8,0c4.8,0.2,8.7-1.9,12.2-4.8c8.8-7.3,13.4-17.3,17.2-27.4c-0.1,0.7-0.5,1.7-0.6,2.8
			c-0.6,6-1.6,11.9-3.2,17.7c-2.4,8.6-5.9,16.5-13.9,21.5c-0.5,0.3-1.1,0.7-0.8,1.4c0.3,0.6,1,0.6,1.6,0.4c2.9-0.6,5.6-1.6,7.6-3.8
			c-2,4.1-4.2,8-8.9,9.8c-0.4,0.1-0.9,0.4-0.7,1c0.2,0.5,0.7,0.6,1.1,0.6c1.2,0.2,2.5-0.3,4-0.3c-3.3,3.4-6.7,5.9-11.2,6.7
			c-1.1,0.2-2.2,0.2-3.3,0c-2.3-0.4-3.3-2-2.9-4.3c0.3-1.6,1.3-2.7,2.6-3.6c0.5-0.3,1.1-0.8,0.9-1.4c-0.3-0.8-1.1-0.4-1.8-0.3
			c-4.6,1.1-6.6,5.4-4.7,10c0.3,0.6,1,1.3,0.4,2c-0.6,0.7-1.5,0.4-2.2,0.3c-1.1-0.2-2.2-0.5-3.2-0.9c-0.7-0.3-1.3-0.6-2.1-0.4
			c-0.3,0.1-0.5,0.4-0.5,0.7c0.3,1.1,1.2,1.5,2.1,2c3.7,1.9,7.7,2.4,11.7,2.1c10-0.7,18-5.2,24-13.2c-0.1,0.1-0.1,0.1-0.1,0.2
			c-3.9,5.4-8.5,9.9-15,11.9c-0.1,0-0.2,0.1-0.4,0.2c-0.5,0.3-1.2,0.6-1,1.3c0.2,0.7,0.9,0.6,1.5,0.6c3.2-0.1,6.1-1.1,8.7-2.9
			c1.2-0.9,2.3-1.9,3.6-2.7c0.4,0.7,0.4,1.3,0.5,1.9c0.8,3.9,2.5,7.3,5,10.4c0.6,0.8,1.6,2,2.6,1.2c1-0.7-0.1-1.8-0.6-2.6
			c-2.2-3.9-2.7-8-1.1-12.2c2.4-6.5,6.6-11.8,10.9-17c0.7-0.8,1.1-0.7,1.4,0.4c0.5,2.3,0.8,4.5,1.1,6.8c0.7,5.5,1,10.9-1.8,16
			c-0.5,0.9-0.6,1.9-0.3,2.9c1,2.9,0.2,5.4-1.3,7.9c-1.4,2.3-1.8,4.9-1.8,7.6c-0.1,6.7,0.4,13.3,1.2,19.9c1.4,11.1,3.2,22,6.7,32.6
			c1.8,5.4,4,10.6,6.1,15.9c0.3,0.7,0.6,1.5,0.7,2.2c0.5,1,0.9,2.1,1.3,3.2c0,0.1,0.1,0.2,0.1,0.3c0.2,0.6,0.3,1.1,0.4,1.7
			c2.7,4.4,5.5,8.7,6.6,13.7c2.4,4.1,4.3,8.3,6.1,12.7c4,10.1,6.2,20.3,7.2,31.1c2,21,2.7,42,4,63.1c0.6,9.6,1.3,19.3,3.7,28.7
			c0.8,3.2,1.8,6.9,1.4,10.3c0,0.2,0,0.4,0,0.6c0,0.4,0,0.9,0,1.3c0.4,0.4,0.5,1.1,0.5,2.4c0.1,3.2,1.4,5.3,4.7,5.8
			c1.9,0.3,2.7,1.5,3,3.4c1.3,6.7,2.7,13.3,4.1,19.9c1.1,5.5,2.3,10.9,3.4,16.4c0.4,2,0.1,2.4-1.8,3c-0.3,0.1-0.6,0.2-0.9,0.3
			c-1.7,0.6-2,1-1.4,2.8c0.3,0.9,0.7,1.7,1,2.6c2.2,5.1,4.1,10.4,5.1,16c0.6,3.7,0.7,7.5-0.8,11.1c-0.2,0.6-0.5,1.3-0.4,1.9
			c0.5,3.3-0.7,6.4-1.7,9.4c-1.7,5.3-3.8,10.5-5.4,15.9c-0.7,2.4-0.7,4.6,0.3,6.9c1.2,2.8,2.7,5.3,4.5,7.6c2.1,2.5,4.4,4.9,8,5.3
			h3.2c3.9-0.4,6.2-2.9,8.1-5.9c2.5-4.2,3.7-8.8,4.2-13.7c0.4-4.7,0.3-9.4,0-14.2c-0.4-7.9,0-15.8-0.4-23.7
			c-0.3-6.4-0.1-12.8-0.5-19.1c-0.1-1.8-0.6-3.2-2.4-3.8c-1.1-0.4-1.5-1.1-1.5-2.2c-0.3-6.3-0.6-12.6-0.7-18.9
			c-0.2-5.9-0.6-11.8-0.6-17.8c0-1.2,0.2-2.2,1.1-3c1.4-1.1,1.6-2.5,1.5-4.2c-0.7-8.1-1.5-16.2-2.2-24.4c-0.4-3.9-0.5-7.9-1.2-11.6
			c0.4,1.3,0.9,2.6,1.4,4c2.1,5.4,4.2,10.8,6.3,16.2c2.6,6.8,5.2,13.5,7.8,20.3c0.6,1.5,1.4,2.7,3.1,2.7c1.6,0,2.3,0.8,2.9,2.1
			c2.4,4.8,4.7,9.7,7,14.6c1.5,3.2,3.2,6.3,4.5,9.7c0.3,0.9,0.5,1.7-0.2,2.6c-2.3,3-2.3,3-0.1,6c6.4,8.8,8.5,18.7,7.6,29.3
			c-0.8,8.9-2.5,17.6-4.5,26.2c-0.2,1-0.4,1.9-0.2,2.9c0.5,3.7,1.5,7.4,3.2,10.7c2.8,5.5,7.5,7.3,13.2,5c7.8-3.1,12.8-10.7,12-19.2
			c-0.9-9.1-0.3-18.2-1.1-27.2c-0.3-3.8-0.4-7.7-2.4-11.1c-2.3-3.8-3-8.1-3.5-12.4c-0.5-4.1-0.4-8.1-0.4-12.2c0-1.9-0.5-3.3-2.6-3.8
			c-1-0.2-1.5-0.9-1.7-1.9c-1.6-7.4-3.4-14.8-4.9-22.2c-0.2-0.7-0.2-1.5,0.5-2c2.6-1.4,2.2-3.6,1.8-5.8c-1.7-8.9-3.6-17.8-6.2-26.5
			c-3-10.3-6.6-20.3-11.8-29.6c-2.6-4.7-4.9-9.6-6.4-14.8c-1.3-4.4-2.1-8.9-1.5-13.6c0.9-7.6,3.3-14.9,5.6-22.2
			c5.9-18.4,11.9-36.7,16.4-55.5c0.4-1.8,1.4-2.6,3.1-3c7.8-1.8,15.5-3.7,23.3-5.4c18.3-4.2,36.5-8.6,54.8-12.8
			c0.8-0.2,1.5-0.4,2.1-1.1v-0.8C702.9,375.6,702.1,373.5,701.1,371.4z M537.8,291c-5.8,5.3-9.8,11.8-13.2,19.1
			c-2.9-19.1-3-37.8,0-56.8c2.8,2.8,5.1,5.8,7.2,8.9c4.4,6.1,8.1,12.5,8.7,20.2C540.8,285.7,540.2,288.8,537.8,291z M569.1,438.2
			c-0.7-5.8-1.6-12.7-2.4-19.6c-1.4-11.4-2.8-22.7-4.1-34.1c-0.7-6.7,1.4-12.7,6.5-17.6C569.1,391,569.1,415.1,569.1,438.2z
			 M621.1,322.8c0.2,3.4,0.4,6.8,0.7,10.2c0.1,1.2-0.2,1.8-1.4,1.7c-1.1,0-2.5,1.6-3.4-0.3c-5.3-12.2-12-23.7-18.9-35
			c-3.3-5.4-2.1-10.7-0.8-16.2c0.9-3.8,1-3.8,4.9-4c6-0.3,11.9-0.8,17.9-1.7c1.7-0.2,2.2-0.1,1.6,1.6
			C620,293.8,620.3,308.3,621.1,322.8z M669,344.9c1.5,0,2.5,0.1,3.5,0.4c0.7,0.1,1,0.2,1.3,0.2s0.4,0.1,0.4,0.3
			c0,0.2-0.1,1.4-0.1,3.9c0,0.6-0.1,0.9-0.3,0.9c-0.2,0-0.3-0.2-0.3-0.5c0-0.4-0.3-1.5-0.5-1.9c-0.2-0.4-1.2-2-4.7-2
			c-2.6,0-4.6,1.6-4.6,4.3c0,2.1,1,3.5,4.5,6.3l1,0.8c0.6,0.4,1.1,0.9,1.5,1.3c-0.6,0.2-1.1,0.4-1.7,0.5c-0.8,0.3-1.5,0.6-2.3,0.9
			l-0.8-0.6c-3.9-3.2-4.8-5.5-4.8-8.1C661.3,347.6,664.3,344.9,669,344.9z M659.4,368.1c-0.3,1.2-0.9,2.5-1.7,3.9
			c-0.8,1.4-1.5,2.6-2.2,3.6c-0.7,1-1.6,2-2.5,3.2c-2.3,2.9-4.9,5.4-7.8,7.7c-1.8,1.4-3.3,2.4-4.2,2.9c-1.4,0.8-2.4,0.9-2.9,0.3
			c-1.1-1.1-0.7-3.1,1.2-6.1c1.9-2.9,4.8-6.1,8.7-9.5c3.5-3.1,7.1-5.9,10.9-8.3c0-0.2,0-0.5,0-0.7c0-0.8-0.1-1.6-0.4-2.3
			c-0.3-0.7-0.6-1.3-0.9-1.9c-0.3-0.5-0.8-1.1-1.4-1.5c-0.6-0.5-1.2-0.9-1.7-1.2c-0.5-0.3-1.2-0.6-2.1-0.9s-1.6-0.5-2.2-0.7
			c-0.6-0.2-1.4-0.3-2.4-0.5s-1.7-0.3-2.2-0.4c-0.5-0.1-1.3-0.2-2.2-0.3c-1-0.1-1.6-0.2-2-0.3c-1.5-0.2-2.8-0.4-3.7-0.6
			c-0.9-0.2-2.1-0.5-3.6-0.9c-1.5-0.4-2.7-0.9-3.7-1.4c-1-0.5-1.9-1.2-2.9-2.1c-1-0.9-1.8-1.9-2.4-3c-0.8-1.4-1.2-3-1.3-4.7
			c-0.1-1.7,0.1-3.3,0.6-4.9c0.5-1.6,1.1-3.1,1.9-4.6c0.8-1.4,1.7-2.8,2.8-4c2.2-2.6,4.7-4.9,7.7-6.9c3-2.1,6.1-3.8,9.3-5.2
			c3.9-1.6,7.3-2.1,10.3-1.5c1.5,0.3,2.9,0.9,4,1.8c1.1,0.9,1.8,2,2,3.4c0,0.2,0,0.4-0.1,0.5c-0.1,0.1-0.3,0.2-0.5,0.1
			c-0.2,0-0.3-0.1-0.3-0.3c-0.3-1.7-1.3-3-3.1-3.9c-3-1.5-6.9-1.2-11.6,0.6c-3.3,1.3-6.6,3.2-10,5.7c-8,5.8-12,11.9-12,18.4
			c0,1.8,0.4,3.4,1.2,4.9c0.9,1.5,2.1,2.8,3.6,3.8c2.2,1.5,5.4,2.5,9.8,3.2c0.7,0.1,1.9,0.3,3.6,0.5c1.7,0.2,3.2,0.5,4.4,0.7
			c1.2,0.2,2.4,0.5,3.6,0.8c3.7,1.1,6.2,2.6,7.5,4.6c0.8,1.2,1.2,2.5,1.4,3.9c0,0.3,0,0.5,0,0.8c0.1,0,0.1-0.1,0.2-0.1
			c4.7-2.9,8.8-4.6,12.1-5.3c0.2,0,0.4,0,0.5,0.1c0.1,0.1,0.2,0.3,0.1,0.4c0,0.2-0.1,0.3-0.3,0.3c-1.3,0.3-2.2,0.5-2.8,0.7
			c-2.9,1-6.2,2.6-9.9,4.9C659.7,366.8,659.6,367.5,659.4,368.1z M671.5,372.5c-1.6,1.1-3.6,1.6-5.6,1.6c-1.7,0-3.5-0.3-5-1
			c-0.5-0.3-0.6-0.4-0.6-1.4c0-1.9,0.1-3.4,0.2-3.9c0-0.4,0.1-0.6,0.3-0.6c0.2,0,0.3,0.1,0.3,0.4c0,0.3,0,0.9,0.1,1.4
			c0.6,2.8,3,3.8,5.5,3.8c3.6,0,5.3-2.6,5.3-5c0-2.1-0.7-3.4-2.6-5.3c0.5-0.2,1.1-0.4,1.6-0.6c0.7-0.1,1.5-0.3,2.2-0.3
			c1.1,1.6,1.4,3.1,1.4,4.8C674.7,367.8,674.1,370.7,671.5,372.5z"/>
	</g>
</g>
</svg>
