<?xml version="1.0" encoding="utf-8"?>
<!-- Generator: Adobe Illustrator 21.0.0, SVG Export Plug-In . SVG Version: 6.00 Build 0)  -->
<svg version="1.1" id="Capa_1_2_" xmlns="http://www.w3.org/2000/svg" xmlns:xlink="http://www.w3.org/1999/xlink" x="0px" y="0px"
	 viewBox="0 0 864.6 742.1" style="enable-background:new 0 0 864.6 742.1;" xml:space="preserve">
<style type="text/css">
	.st0{font-family:'Vivaldii';}
	.st1{font-size:195.2019px;}
	.st2{letter-spacing:39;}
	.st3{font-family:'TrajanPro3-Regular';}
	.st4{font-size:158.7014px;}
	.st5{stroke:#000000;stroke-width:3.6337;stroke-miterlimit:10;}
	.st6{font-family:'White-Apparel';}
	.st7{font-size:301.6978px;}
	.st8{font-family:'MyriadPro-Regular';}
	.st9{fill:#F392BD;}
	.st10{fill:#55C0E5;}
	.st11{fill:#F08DB8;}
	.st12{fill:#F08EB9;}
	.st13{fill:#F08EB8;}
	.st14{fill:#C497DD;}
</style>
<g id="_x39_4f3cb2761f960dad11973b414f43a1c_xA0_Imagen_1_">
</g>
<g id="G_xA0_Imagen_1_">
</g>
<g id="G_copia__x2B__fondo-dorado-1_xA0_Imagen_1_">
</g>
<g id="GEN">
</g>
<g id="GRED">
</g>
<g id="EXLUSIVE__x0D____BY_GEN__x26__GRED">
	<text transform="matrix(1.3407 -0.4347 0.3084 0.9512 661.4868 483.5719)" class="st0 st1 st2">´</text>
	<text transform="matrix(1 0 0 1 253.9075 597.8615)" class="st3 st4">Shop</text>
	<text transform="matrix(1 0 0 1 82.595 493.6007)" class="st5 st6 st7">Samuel</text>
	<text transform="matrix(0.5 0 0 1 726.4094 493.6007)" class="st5 st8 st7"> </text>
	<text transform="matrix(1 0 0 1 758.3879 493.6007)" class="st5 st6 st7">s</text>
	<path class="st9" d="M289,216.4c0.8,0.4,1.6,1,2.4,1.5c-0.4-0.7-1-1.3-1.7-1.7C289.5,216.3,289.2,216.4,289,216.4z"/>
	<path class="st10" d="M295.1,222.8c-0.5-1.8-1.1-3.5-2-5.1c-0.5-0.7-1.1-1.3-1.6-2c-0.7-0.1-1.3,0.2-1.8,0.5
		c0.3,0.5,0.7,0.7,1.1,1.1c0.2,0.2,0.4,0.5,0.6,0.8c1.9,2.6,2.5,5.6,2.8,8.7c0.3,2.4,0.3,4.8,0.2,7.2c0,0.2,0,0.3,0,0.5
		c0,1-0.1,1.9-0.2,2.9c0,0.1,0,0.1,0,0.2c-0.3,2.9-0.7,5.8-1.2,8.7c-0.1,0.7-0.2,0.7-0.8,0.6c-4.3-0.8-8.5-1.7-12.8-2.5
		c-2.3-0.4-4.7-0.9-7-1.3c-0.6-0.1-0.7-0.3-0.6-0.9c0.4-2.4,0.7-4.9,1.2-7.3c0.1-0.6,0.2-1.2,0.4-1.8c0.8-3.4,1.7-6.7,3.1-9.8
		c0.4-0.9,0.9-1.8,1.4-2.6c1.2-2.1,2.6-4,4.7-5.1c1.1-0.6,2.1-1.1,3.1-1.7c0.3-0.2,0.7-0.3,0.8-0.7c-1.6-0.2-3.1,0.1-4.6,0.8
		c-1.7,0.6-2.9,2-4.1,3.5c-1.8,2.3-3,5-4,7.8c-0.7,1.9-1.3,3.9-1.8,5.8c-0.1,0.5-0.2,1.1-0.3,1.6c-0.4,2.4-0.9,4.8-1.3,7.2
		c-0.4,0.6-0.4,1.4-0.4,2.1c-0.1,0.7-0.1,0.7-0.7,0.6c-2.7-0.5-5.4-1-8.2-1.6c-0.4-0.1-0.8,0-1.3-0.1c-0.9-0.2-1.9-0.3-2.8-0.5
		c-0.5-0.1-0.8,0-0.9,0.6c0,0.1-0.1,0.1-0.1,0.2c-0.2,0.2-0.3,0.4-0.3,0.6c-2.6,7.3-5.1,14.6-7.6,21.9c-0.2,0.5-0.3,1.1-0.4,1.7
		c-0.9,2.6-1.8,5.2-2.7,7.8c-3.8,10.8-7.5,21.6-11.3,32.5c-0.2,0.5-0.1,0.6,0.3,0.7c3.3,0.6,6.7,1.3,10,2c2.9,0.6,5.8,1.1,8.7,1.7
		c2.5,0.5,5,1,7.5,1.5c2.9,0.6,5.8,1.1,8.7,1.7c2.5,0.5,5,1,7.5,1.5c2.9,0.6,5.9,1.1,8.8,1.7c2.5,0.5,5,1,7.5,1.5
		c2.9,0.6,5.9,1.1,8.8,1.7c1.9,0.4,3.9,0.7,5.8,1.1c0.3,0.1,0.3-0.1,0.4-0.4c0.1-5.9,0.1-11.8,0.2-17.7c0.1-4.4,0.1-8.8,0.2-13.2
		c0.1-4.9,0.1-9.8,0.2-14.7c0-3.9,0.1-7.9,0.2-11.8c0.1-4.1,0.1-8.1,0.1-12.2c0-0.3-0.1-0.4-0.4-0.5c-2.4-0.5-4.8-0.9-7.3-1.4
		c-2.1-0.4-4.2-0.8-6.3-1.2c-0.4-0.1-0.4-0.3-0.3-0.6c0.4-2.3,0.8-4.7,1.1-7.1c0.1-0.9,0.2-1.7,0.3-2.6c0.2-0.2,0.2-0.4,0.2-0.6
		c0.3-4.4,0.4-8.8-0.5-13.1C295.4,223.3,295.3,223,295.1,222.8z"/>
	<path class="st11" d="M247.7,265.5c0.9-2.5,1.8-5,2.7-7.6c1.9-5.5,3.8-10.9,5.7-16.4c0-0.1,0-0.2,0.1-0.3c-2,0.2-4.1,0.4-6.1,0.6
		c-0.3,0-0.4,0.2-0.5,0.5c-0.5,5.6-1,11.1-1.4,16.7C248,261.1,247.8,263.3,247.7,265.5z"/>
	<path d="M293.7,213.8c0.2-0.2,0.3-0.3,0.3-0.3c0,0,0.8-0.8,1.4-1.7c1.1-1.6,2.1-5.9,1.9-5.9c-0.1,0-0.2,1.9-1.7,3.6
		c-1.6,1.9-4,2.5-5.8,2.9c-1.7,0.4-2.1,0.2-3.5,0.8c-1.2,0.5-2,1-3.3,2c-1.8,1.3-3.3,2.4-4.6,4.3c-0.2,0.3-0.5,0.6-0.6,1.1
		c0.7,0.4,1.4,0,2-0.2c1.1-0.5,2.2-1,3.2-1.6c1.7-1.1,3.6-1.5,5.4-2c0.1,0,0.3-0.1,0.6-0.1c1.2-0.3,1.8-0.5,2.5-0.9
		C292.3,215.2,292.9,214.6,293.7,213.8z"/>
	<path class="st12" d="M277.1,216.7c-1,1.1-1.9,2.3-2.6,3.6c-2,3.9-2.7,8.1-2.7,12.4c0.5-1.6,0.8-3.3,1.3-4.9c0.9-3,2.1-5.9,3.6-8.5
		c1.3-2.2,3-4.1,5.2-5.4c-1.3,0.2-2.5,0.9-3.6,1.8C277.9,216,277.5,216.4,277.1,216.7z"/>
	<path class="st13" d="M259.9,240.9c1,0.2,2,0.4,3,0.6c2.3,0.4,4.5,0.9,6.8,1.3c0.3,0.1,0.5,0,0.5-0.4c0.1-0.9,0.2-1.7,0.3-2.5
		c-1.9,0.2-3.7,0.3-5.6,0.5c-1.6,0.1-3.1,0.3-4.7,0.4C260.1,240.8,260,240.8,259.9,240.9z"/>
	<path class="st11" d="M348,327.2c-1.8-6.2-3.6-12.3-5.5-18.5c-1.8-6.1-3.6-12.2-5.4-18.3c-1.7-5.8-3.4-11.6-5.1-17.4
		c-2.1-7-4.1-14-6.2-21.1c-1.6-5.4-3.2-10.8-4.8-16.1c-0.1-0.5-0.3-0.7-0.8-0.6c-3.4,0.4-6.9,0.7-10.3,1c-2.6,0.2-5.2,0.5-7.9,0.7
		c-0.5,0-0.5-0.3-0.6-0.6c-0.5-2.8-1.2-5.5-2.1-8.2c-1.2-3.6-2.9-6.9-5.3-9.7c-0.3-0.3-0.5-0.7-0.9-0.8c-0.1,0.2,0,0.4,0.1,0.5
		c0.8,1.3,1.3,2.8,1.7,4.3c0,0.1,0.1,0.2,0.2,0.3c0.9,1.2,1.5,2.6,2,4c1.2,3,2.1,6.2,2.7,9.4c0.1,0.7,0.1,0.7-0.5,0.8
		c-1,0.1-2,0.2-3,0.3c-0.2,0-0.4,0-0.6,0.2c-0.1,0.3-0.1,0.5-0.1,0.8c-0.2,2.8-0.7,5.5-1.1,8.3c-0.2,1-0.1,1.2,0.8,1.3
		c4.2,0.8,8.5,1.6,12.7,2.5c0.4,0.1,0.6,0.2,0.6,0.7c0,2.6-0.1,5.2-0.1,7.8c0,2.3,0,4.6-0.1,7c0,2.3-0.1,4.6-0.1,7
		c0,2.4,0,4.7-0.1,7.1c0,2.3-0.1,4.6-0.1,6.8c0,2.4-0.1,4.7-0.1,7.1c0,2.3,0,4.7-0.1,7c0,2.3-0.1,4.6-0.1,6.9c0,2.3,0,4.6-0.1,7
		c0,1.7,0,3.5-0.1,5.2c0,0.5-0.1,0.6-0.6,0.5c-1.8-0.3-3.6-0.7-5.4-1c-2.9-0.6-5.9-1.1-8.8-1.7c-3.3-0.6-6.7-1.3-10-1.9
		c-2.9-0.6-5.7-1.1-8.6-1.7c-2.6-0.5-5.2-1-7.8-1.5c-3.3-0.6-6.7-1.3-10-1.9c-3.2-0.6-6.5-1.2-9.7-1.9c-0.7-0.1-1.5-0.3-2.2-0.4
		c-0.2,0-0.4-0.1-0.5,0.1c0,0.5,0,1,0,1.6c-0.6,7.4-1.3,14.7-1.8,22.1c-0.3,3.9-0.6,7.7-0.9,11.6c0,0.5,0.1,0.6,0.5,0.5
		c4.1-0.6,8.1-1.1,12.2-1.6c4.9-0.7,9.9-1.3,14.8-2c4.7-0.6,9.4-1.3,14.1-1.9c5.3-0.7,10.6-1.4,15.9-2.1c2.9-0.4,5.9-0.8,8.8-1.2
		c4.7-0.6,9.4-1.2,14.2-1.9c5.1-0.7,10.2-1.4,15.3-2c3.7-0.5,7.4-1,11.1-1.5c0.2,0,0.4-0.1,0.6-0.1c0,0,0-0.1,0-0.1
		C348.3,328.9,348.2,328.1,348,327.2z M301.5,247.9c-1.3-0.1-2.1-1.2-2-2.6c0.1-1.4,1.1-2.4,2.4-2.2c1.3,0.1,2.2,1.3,2.1,2.6
		C303.9,247,302.8,248,301.5,247.9z"/>
	<path class="st11" d="M294.3,237.6c-1.2,0.3-2.5,0.3-3.7,0.4c-3.2,0.3-6.3,0.6-9.5,0.9c-2.4,0.2-4.7,0.4-7.1,0.7
		c-0.3,0-0.4-0.1-0.4-0.3c-0.2-1.4-0.3-2.8-0.3-4.3c0-0.6,0-1.3,0-1.9c-0.4,1.4-0.6,2.8-0.9,4.3c-0.3,1.8-0.5,3.6-0.8,5.3
		c-0.1,0.5,0.1,0.7,0.5,0.7c2.1,0.4,4.2,0.8,6.4,1.2c3,0.6,6,1.2,8.9,1.7c1.7,0.3,3.4,0.7,5.1,1c0.3,0.1,0.5,0,0.6-0.4
		C293.5,243.7,294,240.7,294.3,237.6z"/>
	<path class="st11" d="M269.8,253.5c1.1,0.1,2.2-0.9,2.3-2.1c0.1-1.3-0.7-2.4-2-2.5c-1.1-0.1-2.1,0.9-2.2,2.1
		C267.7,252.3,268.6,253.4,269.8,253.5z"/>
	<path class="st11" d="M289.5,255.6c-0.1,1.3,0.7,2.4,1.9,2.4c1.2,0.1,2.1-0.8,2.2-2.1c0.1-1.3-0.7-2.4-1.9-2.5
		C290.6,253.4,289.6,254.3,289.5,255.6z"/>
	<path class="st11" d="M294.5,234.4c-0.1,1-0.2,2-0.2,3C294.4,236.4,294.6,235.4,294.5,234.4z"/>
	<path class="st14" d="M763,632.1c-0.5,0.3-0.9,0.5-1.4,0.6c0.1,0.6,0.3,1.2,0.4,1.9c0.2-0.3,0.5-0.7,0.9-0.9
		c0.1-0.2,0.1-0.4,0.2-0.6c0.2-0.5,0.5-0.9,0.7-1.3c-0.1,0-0.2,0-0.3-0.1C763.4,631.8,763.2,631.9,763,632.1z"/>
	<path class="st14" d="M768.8,623.8c-0.5,0.3-0.9,0.5-1.4,0.6c0.1,0.6,0.3,1.2,0.4,1.9c0.2-0.3,0.5-0.7,0.9-0.9
		c0.1-0.2,0.1-0.4,0.2-0.6c0.2-0.5,0.5-0.9,0.7-1.3c-0.1,0-0.2,0-0.3-0.1C769.2,623.5,769,623.6,768.8,623.8z"/>
</g>
</svg>
