<?xml version="1.0" encoding="utf-8"?>
<!-- Generator: Adobe Illustrator 21.0.0, SVG Export Plug-In . SVG Version: 6.00 Build 0)  -->
<svg version="1.1" id="Capa_1_2_" xmlns="http://www.w3.org/2000/svg" xmlns:xlink="http://www.w3.org/1999/xlink" x="0px" y="0px"
	 viewBox="0 0 864.6 742.1" style="enable-background:new 0 0 864.6 742.1;" xml:space="preserve">
<style type="text/css">
	.st0{font-family:'Vivaldii';}
	.st1{font-size:161.1585px;}
	.st2{letter-spacing:31.9;}
	.st3{font-family:'TrajanPro3-Regular';}
	.st4{font-size:131.024px;}
	.st5{stroke:#000000;stroke-width:3;stroke-miterlimit:10;}
	.st6{font-family:'White-Apparel';}
	.st7{font-size:249.082px;}
	.st8{font-family:'MyriadPro-Regular';}
	.st9{fill:#F392BD;}
	.st10{fill:#55C0E5;}
	.st11{fill:#F08DB8;}
	.st12{fill:#F08EB9;}
	.st13{fill:#F08EB8;}
	.st14{fill:#C497DD;}
	.st15{fill:#EA68B2;}
</style>
<g id="_x39_4f3cb2761f960dad11973b414f43a1c_xA0_Imagen_1_">
</g>
<g id="G_xA0_Imagen_1_">
</g>
<g id="G_copia__x2B__fondo-dorado-1_xA0_Imagen_1_">
</g>
<g id="GEN">
</g>
<g id="GRED">
</g>
<g id="EXLUSIVE__x0D____BY_GEN__x26__GRED">
	<text transform="matrix(1.3407 -0.4347 0.3084 0.9512 501.93 416.2243)" class="st0 st1 st2">´</text>
	<text transform="matrix(1 0 0 1 165.4545 510.5988)" class="st3 st4">Shop</text>
	<text transform="matrix(1 0 0 1 24.0189 424.5217)" class="st5 st6 st7">Samuel</text>
	<text transform="matrix(0.5 0 0 1 555.5531 424.5217)" class="st5 st8 st7"> </text>
	<text transform="matrix(1 0 0 1 581.9545 424.5217)" class="st5 st6 st7">s</text>
	<path class="st9" d="M194.4,195.7c0.7,0.3,1.3,0.8,2,1.2c-0.4-0.6-0.8-1.1-1.4-1.4C194.8,195.6,194.6,195.6,194.4,195.7z"/>
	<path class="st10" d="M199.5,200.9c-0.4-1.5-0.9-2.9-1.6-4.2c-0.4-0.6-0.9-1.1-1.3-1.7c-0.6-0.1-1,0.1-1.5,0.4
		c0.2,0.4,0.6,0.6,0.9,0.9c0.2,0.2,0.3,0.4,0.5,0.6c1.5,2.1,2,4.6,2.3,7.2c0.2,2,0.3,3.9,0.2,5.9c0,0.1,0,0.3,0,0.4
		c0,0.8-0.1,1.6-0.2,2.4c0,0.1,0,0.1,0,0.2c-0.2,2.4-0.6,4.8-1,7.2c-0.1,0.5-0.2,0.6-0.7,0.5c-3.5-0.7-7-1.4-10.6-2
		c-1.9-0.4-3.8-0.7-5.8-1.1c-0.5-0.1-0.6-0.2-0.5-0.8c0.3-2,0.6-4,1-6c0.1-0.5,0.2-1,0.3-1.5c0.6-2.8,1.4-5.5,2.6-8.1
		c0.3-0.7,0.7-1.5,1.1-2.2c1-1.8,2.1-3.3,3.9-4.2c0.9-0.5,1.7-0.9,2.6-1.4c0.2-0.1,0.6-0.2,0.6-0.6c-1.3-0.2-2.6,0.1-3.8,0.7
		c-1.4,0.5-2.4,1.7-3.4,2.9c-1.5,1.9-2.5,4.1-3.3,6.5c-0.6,1.6-1.1,3.2-1.5,4.8c-0.1,0.4-0.1,0.9-0.2,1.4c-0.4,2-0.7,3.9-1.1,5.9
		c-0.3,0.5-0.3,1.1-0.4,1.7c-0.1,0.6-0.1,0.6-0.6,0.5c-2.3-0.4-4.5-0.9-6.7-1.3c-0.3-0.1-0.7,0-1-0.1c-0.8-0.1-1.5-0.2-2.3-0.4
		c-0.4-0.1-0.7,0-0.8,0.5c0,0.1-0.1,0.1-0.1,0.2c-0.2,0.1-0.2,0.3-0.3,0.5c-2.1,6-4.2,12.1-6.3,18.1c-0.2,0.5-0.3,0.9-0.4,1.4
		c-0.7,2.2-1.5,4.3-2.2,6.5c-3.1,8.9-6.2,17.9-9.3,26.8c-0.1,0.4-0.1,0.5,0.3,0.5c2.8,0.5,5.5,1.1,8.3,1.6c2.4,0.5,4.8,0.9,7.2,1.4
		c2.1,0.4,4.2,0.8,6.2,1.2c2.4,0.5,4.8,0.9,7.2,1.4c2.1,0.4,4.2,0.8,6.2,1.2c2.4,0.5,4.8,0.9,7.3,1.4c2.1,0.4,4.1,0.8,6.2,1.2
		c2.4,0.5,4.9,0.9,7.3,1.4c1.6,0.3,3.2,0.6,4.8,0.9c0.3,0.1,0.3-0.1,0.3-0.3c0-4.9,0.1-9.7,0.2-14.6c0-3.6,0.1-7.3,0.1-10.9
		c0-4.1,0.1-8.1,0.1-12.2c0-3.2,0.1-6.5,0.1-9.7c0-3.4,0.1-6.7,0.1-10.1c0-0.3-0.1-0.4-0.3-0.4c-2-0.4-4-0.8-6-1.1
		c-1.7-0.3-3.4-0.7-5.2-1c-0.3-0.1-0.3-0.3-0.2-0.5c0.4-1.9,0.6-3.9,0.9-5.8c0.1-0.7,0.1-1.4,0.2-2.1c0.1-0.1,0.1-0.3,0.2-0.5
		c0.3-3.6,0.3-7.3-0.4-10.8C199.7,201.4,199.6,201.1,199.5,200.9z"/>
	<path class="st11" d="M160.3,236.2c0.7-2.1,1.5-4.2,2.2-6.2c1.6-4.5,3.1-9,4.7-13.5c0-0.1,0-0.2,0.1-0.2c-1.7,0.2-3.4,0.3-5,0.5
		c-0.3,0-0.4,0.1-0.4,0.4c-0.4,4.6-0.8,9.2-1.1,13.8C160.6,232.6,160.4,234.4,160.3,236.2z"/>
	<path d="M198.3,193.5c0.1-0.1,0.2-0.2,0.2-0.3c0,0,0.6-0.7,1.1-1.4c0.9-1.3,1.8-4.8,1.6-4.9c-0.1,0-0.2,1.6-1.4,3
		c-1.3,1.5-3.3,2-4.8,2.4c-1.4,0.4-1.7,0.2-2.9,0.7c-1,0.4-1.6,0.8-2.8,1.6c-1.5,1-2.7,2-3.8,3.6c-0.2,0.3-0.4,0.5-0.5,0.9
		c0.6,0.3,1.1,0,1.7-0.2c0.9-0.4,1.8-0.8,2.6-1.3c1.4-0.9,3-1.2,4.5-1.6c0.1,0,0.2-0.1,0.5-0.1c1-0.3,1.5-0.4,2.1-0.7
		C197.1,194.7,197.6,194.2,198.3,193.5z"/>
	<path class="st12" d="M184.6,195.9c-0.8,0.9-1.6,1.9-2.2,3c-1.7,3.2-2.2,6.7-2.2,10.2c0.4-1.4,0.7-2.7,1.1-4.1c0.8-2.5,1.7-4.8,3-7
		c1.1-1.8,2.5-3.4,4.3-4.4c-1.1,0.2-2,0.8-3,1.5C185.3,195.3,184.9,195.6,184.6,195.9z"/>
	<path class="st13" d="M170.4,215.9c0.8,0.2,1.6,0.3,2.4,0.5c1.9,0.4,3.7,0.7,5.6,1.1c0.3,0.1,0.4,0,0.4-0.3
		c0.1-0.7,0.2-1.4,0.3-2.1c-1.5,0.1-3.1,0.2-4.6,0.4c-1.3,0.1-2.6,0.2-3.9,0.4C170.6,215.8,170.5,215.8,170.4,215.9z"/>
	<path class="st11" d="M243.1,287.2c-1.5-5.1-3-10.2-4.5-15.3c-1.5-5-3-10.1-4.5-15.1c-1.4-4.8-2.8-9.6-4.2-14.3
		c-1.7-5.8-3.4-11.6-5.1-17.4c-1.3-4.4-2.6-8.9-3.9-13.3c-0.1-0.4-0.3-0.5-0.7-0.5c-2.8,0.3-5.7,0.5-8.5,0.8
		c-2.2,0.2-4.3,0.4-6.5,0.6c-0.4,0-0.4-0.2-0.5-0.5c-0.4-2.3-1-4.5-1.7-6.7c-1-3-2.4-5.7-4.4-8c-0.2-0.2-0.4-0.5-0.7-0.6
		c-0.1,0.2,0,0.3,0.1,0.4c0.6,1.1,1.1,2.3,1.4,3.6c0,0.1,0.1,0.2,0.1,0.3c0.7,1,1.2,2.2,1.7,3.3c1,2.5,1.7,5.1,2.2,7.8
		c0.1,0.6,0.1,0.6-0.5,0.7c-0.8,0.1-1.7,0.2-2.5,0.2c-0.2,0-0.4,0-0.5,0.2c-0.1,0.2-0.1,0.4-0.1,0.7c-0.2,2.3-0.5,4.6-0.9,6.8
		c-0.1,0.8-0.1,1,0.7,1.1c3.5,0.7,7,1.4,10.5,2c0.3,0.1,0.5,0.2,0.5,0.6c0,2.2-0.1,4.3-0.1,6.5c0,1.9,0,3.8-0.1,5.7
		c0,1.9-0.1,3.8-0.1,5.7c0,1.9,0,3.9-0.1,5.8c0,1.9,0,3.8-0.1,5.6c0,1.9,0,3.9-0.1,5.8c0,1.9,0,3.9-0.1,5.8c0,1.9-0.1,3.8-0.1,5.7
		c0,1.9,0,3.8-0.1,5.7c0,1.4,0,2.9-0.1,4.3c0,0.4-0.1,0.5-0.5,0.4c-1.5-0.3-2.9-0.6-4.4-0.9c-2.4-0.5-4.8-0.9-7.3-1.4
		c-2.7-0.5-5.5-1.1-8.2-1.6c-2.4-0.5-4.7-0.9-7.1-1.4c-2.1-0.4-4.3-0.8-6.4-1.2c-2.8-0.5-5.5-1.1-8.3-1.6c-2.7-0.5-5.3-1-8-1.6
		c-0.6-0.1-1.2-0.2-1.8-0.3c-0.2,0-0.3-0.1-0.4,0.1c0,0.4,0,0.9,0,1.3c-0.5,6.1-1,12.1-1.5,18.2c-0.2,3.2-0.5,6.4-0.8,9.5
		c0,0.4,0.1,0.5,0.4,0.4c3.4-0.5,6.7-0.9,10.1-1.4c4.1-0.5,8.1-1.1,12.2-1.6c3.9-0.5,7.8-1,11.6-1.6c4.4-0.6,8.7-1.1,13.1-1.7
		c2.4-0.3,4.8-0.7,7.3-1c3.9-0.5,7.8-1,11.7-1.5c4.2-0.6,8.4-1.1,12.6-1.7c3.1-0.4,6.1-0.8,9.2-1.2c0.2,0,0.3,0,0.5-0.1
		c0,0,0-0.1,0-0.1C243.4,288.6,243.3,287.9,243.1,287.2z M204.7,221.7c-1.1-0.1-1.7-1-1.6-2.2c0.1-1.2,0.9-1.9,2-1.9
		c1,0.1,1.8,1,1.7,2.2C206.7,220.9,205.8,221.8,204.7,221.7z"/>
	<path class="st11" d="M198.8,213.1c-1,0.3-2.1,0.2-3.1,0.3c-2.6,0.3-5.2,0.5-7.9,0.7c-1.9,0.2-3.9,0.4-5.8,0.5
		c-0.2,0-0.3,0-0.3-0.3c-0.1-1.2-0.2-2.4-0.3-3.5c0-0.5,0-1.1,0-1.6c-0.3,1.2-0.5,2.3-0.7,3.5c-0.3,1.5-0.4,2.9-0.7,4.4
		c-0.1,0.4,0.1,0.5,0.4,0.6c1.8,0.3,3.5,0.7,5.3,1c2.5,0.5,4.9,1,7.4,1.4c1.4,0.3,2.8,0.5,4.2,0.8c0.3,0.1,0.4,0,0.5-0.3
		C198.2,218.2,198.6,215.7,198.8,213.1z"/>
	<path class="st11" d="M178.5,226.3c0.9,0.1,1.8-0.7,1.9-1.7c0.1-1.1-0.6-2-1.6-2c-0.9-0.1-1.8,0.7-1.8,1.7
		C176.9,225.3,177.6,226.2,178.5,226.3z"/>
	<path class="st11" d="M194.9,228c-0.1,1.1,0.6,1.9,1.6,2c1,0.1,1.8-0.7,1.8-1.7c0.1-1.1-0.6-1.9-1.6-2
		C195.8,226.2,195,227,194.9,228z"/>
	<path class="st11" d="M199,210.6c-0.1,0.8-0.2,1.6-0.2,2.5C198.9,212.2,199,211.4,199,210.6z"/>
	<path class="st10" d="M678.3,587.7c-1.9-5.3-0.8-11.1-2.6-15.8c-4.2-11.2-4.8-22.9-5.8-34.4c-0.7-8-3.8-16.5,0.6-24.6
		c0.6-1.1,0.1-2.8-1.2-3.6c-2.4-1.4-2.7-3.7-3.1-6.1c-0.9-5.7-1.7-11.4-2.6-17c-3.1-17.7-1.2-35.2,0.4-52.8c0.5-5,4.1-2.9,12-11.6
		c4.7-5.2,7.4-9.1,9-12c-0.5-0.7-0.9-1.7-0.9-2.9c0-5,1.3-9.8,2.7-14.6c0.6-2.1,1.6-4,2.5-5.9c0.1-0.8,0.3-1.6,0.5-2.3
		c-0.7-6.1-1.6-11.6-3.2-11.7c-3.9-0.4-7.5,30.9-19.2,33c-1.6,0.3-9.4,1.9-11.6,4.6c-0.9,1.1-1.2,3.1-3.4,2.1c-1.8-0.8-3.3-2-3.6-4
		c-0.7-4.3,0.9-8,4.2-10.3c2-1.4,3-3.1,4.3-4.8c3-4.2,1.1-9,2.2-13.4c2.5-9.8-3.4-17.4-13.4-18.4c-2.6-0.3-5.1,0.1-7.6,0.1
		c-4.4,0.1-8.1,2.4-10.7,5.4c-2.8,3.1-3.7,7-3.4,11.7c0.4,6.7,0.8,12.8,3.8,19.2c5,10.5,1.8,15.5-9.8,18.1c-0.2,0-0.3,0.1-0.5,0.1
		c-10,2.2-12.2,5.4-14.6,15.3c-2.6,10.8,1.2,22.3-3.7,32.7c-0.2,0.5,0,1.4,0.2,2c1.5,6.3,2.6,12.8,5.3,18.7c1.3,2.9,2.1,5.9,1.5,9
		c-1,5.7,1.8,10.3,5.1,14c2.4,2.7,2.9,5.2,2.4,8.1c-1.1,7.7-0.6,15.6,0.3,23.1c2.5,21.6-2.3,42.6-3.6,63.8c-0.1,1.2-0.7,2.3-1.1,3.4
		c-2.7,7.1-2.1,8.3,5.2,10.1c-2.3,3.5-4.7,6.7-8.2,9c-3.5,2.3-3.6,4.7-0.2,7.1c8.7,2.9,14.9,1.5,18.6-4.2c1.7-1.8,4.8-2.3,5.3-5.2
		c0.6-3.2-2.1-7.7,3.8-8.7c0.2,0,0.2-1.3,0.3-1.9c1.6-9.4,1.4-18.9,1.4-28.5c0-19.5,1.6-39,2.7-58.6c0.2-3,0.4-6.1,2.3-8.6
		c1.6,0.1,1.5,1.3,1.8,2.3c3.9,13.6,5.5,27.8,9.2,41.5c1.6,5.9-0.8,11.5,0.2,17.3c1.6,10.2,4.4,20.2,7.5,30.1c1,3.2,2,6.2,5,8.1
		c3.5,2.2,7.1,4.2,10.7,0.8c3.5-3.3,1.9-7-0.1-10.3c-1.9-3.1-4.2-6.1-4.4-10C676.2,595.6,679.9,592.2,678.3,587.7z"/>
	<path class="st14" d="M747.3,588.3c-0.5,0.3-0.9,0.5-1.4,0.6c0.1,0.6,0.3,1.2,0.4,1.9c0.2-0.3,0.5-0.7,0.9-0.9
		c0.1-0.2,0.1-0.4,0.2-0.6c0.2-0.5,0.5-0.9,0.7-1.3c-0.1,0-0.2,0-0.3-0.1C747.7,588,747.5,588.2,747.3,588.3z"/>
	<g>
		<path class="st15" d="M770.8,396.9c-0.8,0.8-1.4,1.5-1.9,2s-1,1.1-1.5,1.9c-0.6,0.8-1,1.6-1.3,2.3c-0.4,0.9-0.4,1.5-0.2,1.8
			c0.1,0.1,0.2,0.1,0.3,0.1c0.1,0,0.3,0,0.5-0.1c0.2-0.1,0.3-0.1,0.5-0.2c0.1-0.1,0.3-0.2,0.5-0.3c0.2-0.1,0.4-0.2,0.5-0.3
			c0.1-0.1,0.3-0.2,0.4-0.3c0.2-0.1,0.3-0.2,0.3-0.2c1.1-0.7,2.1-1.5,3-2.4c1.9-1.7,3.6-3.6,5.2-5.8c0.9-1.3,1.7-2.6,2.2-3.7
			c0.4-0.8,0.6-1.5,0.7-2.3c-0.4,0.2-0.7,0.5-1.1,0.7C775.9,392.2,773.2,394.5,770.8,396.9z"/>
		<path class="st15" d="M809.7,392.6c-2.2-4.2-4.2-8.5-6.2-12.8c-3.3-6.9-6.7-13.9-10-20.8c-0.5-1-1.2-1.3-2.3-1.1
			c-1.2,0.3-2.4,0.5-3.7,0.8c-1.7,0.4-1.9,0.3-2.5-1.4c-0.7-1.9-1.5-3.9-2.3-5.8c-3.8-9.2-7.8-18.3-13.1-26.8c-1-1.6-1-1.6,0.8-2.5
			c2.4-1.2,4.8-2.4,7.1-3.7c1.2-0.7,1.8-1.6,1.6-3.1c-0.2-1.2-0.2-2.5,0-3.7c0.3-2,0-3.9-0.7-5.8c-1.5-3.8-3.4-7.3-5.6-10.8
			c-5.2-8.2-10.2-16.5-13.9-25.5c-1.5-3.7-3.8-7-6.8-9.6c-3.2-2.8-6.8-5-11.3-4.6c-1.9,0.2-3.8,0.5-5.7,0.9c-1.5,0.3-2.9,0.6-4.5,1
			c1.4-4.3,0.9-8.7,1.8-13c0.6,1,1.3,1.7,2.1,2.3c3.3,2.3,7.5,0.8,8.3-2.9c0.5-2.2-0.9-4.8-3-5.6c-0.5-0.2-1-0.4-1.4,0
			c-0.3,0.4,0,0.9,0.3,1.3c0.2,0.3,0.4,0.6,0.6,0.9c0.7,1.6-0.1,2.8-1.9,2.7c-1.4-0.1-2.5-0.9-3.3-2c-1-1.5-1.4-3.2-1.2-5
			c0.4-3.2,0.3-6.5,0.2-9.7c-0.1-4.1-0.7-8.1-2.3-11.9c-1.7-3.8-4.4-6.6-8.5-7.7c-0.8-0.2-1.4-0.7-1.9-1.3c-0.9-1.1-1.8-2.2-3-3.1
			c-2.5-1.9-5.2-3.1-8.3-3.3h-5.8c-0.1,0.1-0.2,0.1-0.4,0.1c-4.3,0-7.8,1.9-11.1,4.5c-0.5,0.4-1.1,0.8-1.1,1.5
			c0,0.2,0.2,0.4,0.4,0.5c0.8,0.1,1.3-0.4,1.9-0.8c2-1.2,4.1-2.2,6.2-2.9c-0.5,0.2-1,0.4-1.5,0.7c-6.7,3.1-11.9,7.8-14.6,14.9
			c-1.5,4.1-2.7,8.2-3.7,12.4c-1.2,4.9-2.1,9.8-3.4,14.7c-0.9,3.3-2.6,6.1-5.1,8.3c-1.6,1.4-3.3,2.9-5.1,4.1
			c-5.6,3.8-7.9,9.4-8.6,15.9c0,0.5-0.3,1.2,0.3,1.3c0.7,0.2,0.8-0.6,1-1.1c0-0.1,0.1-0.2,0.1-0.3c1.1-4,3.3-7.3,6.4-10
			c2-1.7,4.1-3.2,6.7-4.5c-1,2.7-2.1,5.1-3.9,7c-1.9,2-4.1,3.6-6.2,5.3c-0.4,0.3-1,0.6-0.7,1.2c0.3,0.5,0.9,0.2,1.4,0.1
			c0.5-0.2,1-0.3,1.4-0.6c2.4-1.3,4.8-2.6,6.7-4.4c-0.4,0.4-0.6,0.9-0.9,1.5c-2,4.6-4.9,8.5-8.2,12c-2.7,2.9-5.8,5.3-9.9,6
			c-0.5,0.1-1,0.1-1.5,0.2c-0.3,0.1-0.6,0.2-0.6,0.5c-0.1,0.4,0.3,0.6,0.6,0.7c1.7,0.7,3.5,0.7,5,0.3c-1.3,0.9-2.9,2-4.8,2.5
			c-2.3,0.6-4.5,0.9-6.6-0.7c-0.3-0.3-0.8-0.7-1.2-0.3c-0.4,0.4,0,0.9,0.2,1.3c1.2,2,3,3.1,5.4,3.2c1.9,0.1,3.9,0,5.8-0.8
			c-2.2,3.7-3.2,7.6-3.8,11.6c-0.1,0.6-0.4,1.5,0.4,1.7c0.7,0.2,0.9-0.7,1.2-1.3c1-2.2,1.9-4.3,2.9-6.3c-0.1,0.3-0.2,0.7-0.3,1
			c-0.5,2.1-1.3,4.1-1.8,6.1c-0.8,3.1-2.8,5.2-5.7,6.6c-1.6,0.8-3.3,1.5-4.9,2.3c-5.1,2.8-8.6,6.6-8.1,13c0.2,2.3,1.1,4.2,3,5.7
			c0.4,0.3,0.8,0.6,1.4,0.6c0.5,0,0.8-0.3,0.6-0.8c-0.1-0.3-0.3-0.6-0.6-0.8c-2-2-2.2-4.4-1.3-6.8c1.6-4.4,5.5-6.3,9.5-8.2
			c-0.4,1.3-1,2-1.8,2.6c-1.1,0.8-2.2,1.5-3.5,1.9c-0.4,0.1-1.1,0.2-1,0.8c0.1,0.5,0.7,0.5,1.2,0.5c0.2,0,0.4,0,0.6,0
			c3.3,0.1,6.1-1.3,8.5-3.4c6.2-5.1,9.4-12.1,12.1-19.2c-0.1,0.5-0.3,1.2-0.4,1.9c-0.4,4.2-1.1,8.3-2.3,12.4
			c-1.7,6-4.1,11.6-9.7,15.1c-0.3,0.2-0.8,0.5-0.5,1c0.2,0.4,0.7,0.4,1.1,0.3c2-0.4,3.9-1.1,5.3-2.6c-1.4,2.9-3,5.6-6.2,6.8
			c-0.3,0.1-0.6,0.3-0.5,0.7c0.1,0.3,0.5,0.4,0.8,0.4c0.9,0.1,1.7-0.2,2.8-0.2c-2.3,2.4-4.7,4.1-7.8,4.7c-0.8,0.1-1.6,0.2-2.3,0
			c-1.6-0.3-2.3-1.4-2-3c0.2-1.1,0.9-1.9,1.8-2.5c0.3-0.2,0.8-0.6,0.6-1c-0.2-0.5-0.8-0.3-1.2-0.2c-3.2,0.8-4.6,3.8-3.3,7
			c0.2,0.4,0.7,0.9,0.3,1.4c-0.4,0.5-1,0.3-1.6,0.2c-0.8-0.1-1.5-0.4-2.3-0.7c-0.5-0.2-0.9-0.4-1.5-0.3c-0.2,0.1-0.3,0.3-0.3,0.5
			c0.2,0.8,0.8,1.1,1.4,1.4c2.6,1.3,5.4,1.7,8.2,1.5c7-0.5,12.6-3.6,16.8-9.3c0,0.1-0.1,0.1-0.1,0.2c-2.7,3.8-5.9,6.9-10.5,8.3
			c-0.1,0-0.2,0.1-0.3,0.1c-0.4,0.2-0.8,0.4-0.7,0.9c0.1,0.5,0.6,0.4,1,0.4c2.2-0.1,4.2-0.8,6.1-2.1c0.8-0.6,1.6-1.3,2.6-1.9
			c0.3,0.5,0.3,0.9,0.4,1.3c0.6,2.7,1.7,5.1,3.5,7.3c0.5,0.5,1.1,1.4,1.8,0.9c0.7-0.5-0.1-1.2-0.4-1.8c-1.6-2.7-1.9-5.6-0.8-8.5
			c1.7-4.5,4.6-8.3,7.7-11.9c0.5-0.6,0.8-0.5,1,0.3c0.3,1.6,0.5,3.2,0.8,4.8c0.5,3.8,0.7,7.6-1.2,11.2c-0.3,0.6-0.4,1.4-0.2,2
			c0.7,2,0.1,3.8-0.9,5.5c-1,1.6-1.3,3.4-1.3,5.3c0,4.7,0.3,9.3,0.9,13.9c0.9,7.7,2.3,15.4,4.7,22.9c1.2,3.8,2.8,7.4,4.3,11.1
			c0.2,0.5,0.4,1,0.5,1.6c0.4,0.7,0.7,1.5,0.9,2.2c0,0.1,0,0.1,0.1,0.2c0.1,0.4,0.2,0.8,0.3,1.2c1.9,3.1,3.8,6.1,4.6,9.6
			c1.7,2.8,3,5.8,4.3,8.9c2.8,7.1,4.3,14.2,5,21.8c1.4,14.7,1.9,29.4,2.8,44.2c0.4,6.7,0.9,13.5,2.6,20.1c0.6,2.3,1.3,4.9,1,7.2
			c0,0.1,0,0.3,0,0.4c0,0.3,0,0.6,0,0.9c0.3,0.3,0.3,0.8,0.4,1.7c0.1,2.2,1,3.7,3.3,4.1c1.3,0.2,1.9,1.1,2.1,2.4
			c0.9,4.7,1.9,9.3,2.9,14c0.8,3.8,1.6,7.7,2.4,11.5c0.3,1.4,0.1,1.7-1.3,2.1c-0.2,0.1-0.4,0.1-0.7,0.2c-1.2,0.4-1.4,0.7-1,1.9
			c0.2,0.6,0.5,1.2,0.7,1.8c1.6,3.6,2.9,7.3,3.6,11.2c0.5,2.6,0.5,5.2-0.5,7.8c-0.2,0.4-0.3,0.9-0.3,1.3c0.3,2.3-0.5,4.5-1.2,6.6
			c-1.2,3.7-2.7,7.4-3.8,11.1c-0.5,1.7-0.5,3.3,0.2,4.9c0.8,1.9,1.9,3.7,3.2,5.3c1.5,1.8,3.1,3.5,5.6,3.7h2.2c2.7-0.3,4.4-2,5.7-4.2
			c1.8-2.9,2.6-6.2,2.9-9.6c0.3-3.3,0.2-6.6,0-9.9c-0.2-5.5,0-11.1-0.3-16.6c-0.2-4.5-0.1-8.9-0.3-13.4c-0.1-1.3-0.4-2.3-1.7-2.7
			c-0.8-0.3-1-0.8-1.1-1.6c-0.2-4.4-0.4-8.8-0.5-13.3c-0.1-4.1-0.4-8.3-0.4-12.4c0-0.8,0.1-1.5,0.8-2.1c0.9-0.8,1.1-1.8,1-3
			c-0.5-5.7-1-11.4-1.6-17.1c-0.2-2.8-0.3-5.5-0.8-8.1c0.3,0.9,0.6,1.8,1,2.8c1.4,3.8,2.9,7.6,4.4,11.4c1.8,4.7,3.6,9.5,5.5,14.2
			c0.4,1,0.9,1.9,2.1,1.9c1.1,0,1.6,0.6,2.1,1.5c1.7,3.4,3.3,6.8,4.9,10.2c1.1,2.2,2.3,4.4,3.2,6.8c0.2,0.6,0.4,1.2-0.1,1.8
			c-1.6,2.1-1.6,2.1,0,4.2c4.5,6.2,6,13.1,5.3,20.6c-0.5,6.2-1.7,12.3-3.2,18.4c-0.2,0.7-0.3,1.4-0.2,2.1c0.4,2.6,1.1,5.2,2.3,7.5
			c1.9,3.9,5.2,5.1,9.3,3.5c5.4-2.1,9-7.5,8.4-13.5c-0.6-6.3-0.2-12.7-0.8-19.1c-0.2-2.7-0.3-5.4-1.7-7.8c-1.6-2.7-2.1-5.7-2.5-8.7
			c-0.3-2.9-0.3-5.7-0.3-8.6c0-1.4-0.4-2.3-1.8-2.7c-0.7-0.2-1.1-0.6-1.2-1.3c-1.2-5.2-2.4-10.3-3.5-15.5c-0.1-0.5-0.2-1.1,0.4-1.4
			c1.8-1,1.6-2.5,1.3-4.1c-1.2-6.3-2.6-12.5-4.3-18.6c-2.1-7.2-4.6-14.2-8.3-20.8c-1.9-3.3-3.4-6.7-4.5-10.4
			c-0.9-3.1-1.5-6.3-1.1-9.5c0.6-5.4,2.3-10.4,3.9-15.5c4.2-12.9,8.4-25.7,11.5-38.9c0.3-1.3,1-1.8,2.2-2.1
			c5.4-1.2,10.9-2.6,16.3-3.8c12.8-3,25.6-6,38.4-9c0.5-0.1,1.1-0.3,1.5-0.7v-0.6C811,395.6,810.4,394.1,809.7,392.6z M695.3,336.3
			c-4.1,3.7-6.8,8.3-9.3,13.4c-2-13.4-2.1-26.5,0-39.8c1.9,2,3.5,4.1,5.1,6.2c3.1,4.3,5.7,8.8,6.1,14.2
			C697.4,332.6,697,334.8,695.3,336.3z M717.2,439.4c-0.5-4.1-1.1-8.9-1.7-13.7c-1-8-2-15.9-2.8-23.9c-0.5-4.7,1-8.9,4.5-12.4
			C717.2,406.4,717.2,423.2,717.2,439.4z M753.6,358.6c0.1,2.4,0.3,4.8,0.5,7.2c0.1,0.8-0.2,1.2-1,1.2c-0.8,0-1.8,1.2-2.4-0.2
			c-3.7-8.6-8.4-16.6-13.2-24.5c-2.3-3.8-1.5-7.5-0.5-11.3c0.7-2.7,0.7-2.6,3.5-2.8c4.2-0.2,8.4-0.6,12.5-1.2c1.2-0.2,1.6,0,1.1,1.1
			C752.8,338.3,753.1,348.4,753.6,358.6z M787.2,374c1,0,1.8,0.1,2.4,0.3c0.5,0.1,0.7,0.1,0.9,0.1c0.2,0,0.3,0.1,0.3,0.2
			s-0.1,1-0.1,2.8c0,0.4-0.1,0.6-0.2,0.6c-0.2,0-0.2-0.1-0.2-0.3c0-0.3-0.2-1-0.3-1.3c-0.2-0.3-0.9-1.4-3.3-1.4
			c-1.8,0-3.2,1.1-3.2,3c0,1.5,0.7,2.4,3.2,4.4l0.7,0.6c0.4,0.3,0.8,0.6,1.1,0.9c-0.4,0.1-0.8,0.2-1.2,0.4c-0.5,0.2-1.1,0.4-1.6,0.6
			l-0.5-0.4c-2.8-2.3-3.4-3.9-3.4-5.7C781.8,375.9,783.9,374,787.2,374z M779.3,393.1c-0.6,1-1.1,1.8-1.6,2.5
			c-0.5,0.7-1.1,1.4-1.8,2.2c-1.6,2-3.5,3.8-5.5,5.4c-1.3,1-2.3,1.7-3,2c-1,0.6-1.7,0.6-2.1,0.2c-0.8-0.8-0.5-2.2,0.9-4.3
			c1.3-2,3.4-4.3,6.1-6.7c2.4-2.2,5-4.1,7.7-5.8c0-0.2,0-0.3,0-0.5c0-0.6-0.1-1.1-0.3-1.6s-0.4-0.9-0.6-1.3c-0.2-0.4-0.6-0.7-1-1.1
			c-0.4-0.3-0.8-0.6-1.2-0.8c-0.4-0.2-0.9-0.4-1.5-0.6c-0.6-0.2-1.1-0.4-1.5-0.5c-0.4-0.1-1-0.2-1.7-0.4c-0.7-0.1-1.2-0.2-1.6-0.3
			c-0.4-0.1-0.9-0.1-1.6-0.2s-1.2-0.2-1.4-0.2c-1.1-0.1-1.9-0.3-2.6-0.4c-0.7-0.1-1.5-0.3-2.5-0.6c-1-0.3-1.9-0.6-2.6-1
			c-0.7-0.4-1.4-0.8-2.1-1.4c-0.7-0.6-1.3-1.3-1.7-2.1c-0.6-1-0.9-2.1-0.9-3.3s0.1-2.3,0.4-3.5c0.3-1.1,0.8-2.2,1.4-3.2
			c0.6-1,1.2-1.9,2-2.8c1.5-1.8,3.3-3.4,5.4-4.9c2.1-1.4,4.2-2.6,6.5-3.6c2.8-1.1,5.1-1.5,7.2-1.1c1.1,0.2,2,0.6,2.8,1.3
			c0.8,0.6,1.2,1.4,1.4,2.4c0,0.1,0,0.2-0.1,0.3s-0.2,0.1-0.3,0.1c-0.1,0-0.2-0.1-0.2-0.2c-0.2-1.2-0.9-2.1-2.1-2.7
			c-2.1-1-4.8-0.9-8.1,0.5c-2.3,0.9-4.7,2.2-7,4c-5.6,4.1-8.4,8.4-8.4,12.9c0,1.2,0.3,2.4,0.9,3.5c0.6,1.1,1.4,2,2.5,2.7
			c1.5,1,3.8,1.8,6.9,2.3c0.5,0.1,1.3,0.2,2.5,0.4c1.2,0.2,2.3,0.3,3.1,0.5c0.9,0.2,1.7,0.4,2.5,0.6c2.6,0.7,4.4,1.8,5.3,3.2
			c0.6,0.8,0.9,1.7,0.9,2.7c0,0.2,0,0.4,0,0.6c0,0,0.1-0.1,0.1-0.1c3.3-2,6.1-3.2,8.5-3.7c0.1,0,0.2,0,0.3,0.1
			c0.1,0.1,0.1,0.2,0.1,0.3c0,0.1-0.1,0.2-0.2,0.2c-0.9,0.2-1.5,0.4-1.9,0.5c-2.1,0.7-4.4,1.8-6.9,3.4c0,0.5-0.1,1-0.2,1.4
			C780.2,391.2,779.9,392.1,779.3,393.1z M789,393.4c-1.1,0.8-2.5,1.1-3.9,1.1c-1.2,0-2.4-0.2-3.5-0.7c-0.4-0.2-0.4-0.3-0.4-1
			c0-1.3,0.1-2.3,0.1-2.8c0-0.3,0.1-0.4,0.2-0.4c0.2,0,0.2,0.1,0.2,0.3c0,0.2,0,0.6,0.1,1c0.4,1.9,2.1,2.7,3.9,2.7
			c2.5,0,3.7-1.8,3.7-3.5c0-1.4-0.5-2.4-1.8-3.7c0.4-0.1,0.7-0.3,1.1-0.4c0.5-0.1,1-0.2,1.6-0.2c0.8,1.1,1,2.1,1,3.3
			C791.2,390.1,790.8,392.1,789,393.4z"/>
	</g>
</g>
</svg>
