<?xml version="1.0" encoding="utf-8"?>
<!-- Generator: Adobe Illustrator 21.0.0, SVG Export Plug-In . SVG Version: 6.00 Build 0)  -->
<svg version="1.1" id="Capa_1_2_" xmlns="http://www.w3.org/2000/svg" xmlns:xlink="http://www.w3.org/1999/xlink" x="0px" y="0px"
	 viewBox="0 0 864.6 742.1" style="enable-background:new 0 0 864.6 742.1;" xml:space="preserve">
<style type="text/css">
	.st0{fill:#231716;}
	.st1{fill:#635F61;}
	.st2{fill:#BDB4B2;}
	.st3{fill:#C497DD;}
	.st4{fill:none;}
	.st5{fill:#55C0E5;}
	.st6{fill:#EA68B2;stroke:#EA68B2;stroke-width:6;stroke-miterlimit:10;}
	.st7{font-family:'White-Apparel';}
	.st8{font-size:236.7013px;}
	.st9{fill:#EA68B2;}
</style>
<g id="_x39_4f3cb2761f960dad11973b414f43a1c_xA0_Imagen_1_">
</g>
<g id="G_xA0_Imagen_1_">
</g>
<g id="G_copia__x2B__fondo-dorado-1_xA0_Imagen_1_">
</g>
<g id="GEN">
</g>
<g id="GRED">
</g>
<g id="EXLUSIVE__x0D____BY_GEN__x26__GRED">
	<path class="st0" d="M419.5,308.7c0.2-0.3,0.5-0.6,0.8-1C420,308,419.7,308.3,419.5,308.7z"/>
	<path class="st0" d="M420.3,307.6c0,0,0.1-0.1,0.1-0.1C420.3,307.5,420.3,307.6,420.3,307.6z"/>
	<path class="st1" d="M222.4,359.5c0.6,0.6,1.3,1.2,1.9,1.8c-0.1,0.1-0.3,0.2-0.4,0.4c-0.8-0.3-0.9-1.2-1.5-1.6
		C222.4,360,222.4,359.8,222.4,359.5z"/>
	<path class="st2" d="M419.7,308.8c-0.1-0.1-0.2-0.2-0.3-0.3c0.4-0.6,0.9-1.2,1.6-2.1C420.7,307.6,420.2,308.2,419.7,308.8z"/>
	<path class="st3" d="M534.8,579.9c-0.5,0.3-0.9,0.5-1.4,0.6c0.1,0.6,0.3,1.2,0.4,1.9c0.2-0.3,0.5-0.7,0.9-0.9
		c0.1-0.2,0.1-0.4,0.2-0.6c0.2-0.5,0.5-0.9,0.7-1.3c-0.1,0-0.2,0-0.3-0.1C535.2,579.6,535,579.7,534.8,579.9z"/>
	<path id="SVGID_x5F_1_x5F_" class="st4" d="M728.1,386.2c0,168.4-136.6,305-305,305s-305-136.6-305-305s136.6-305,305-305
		S728.1,217.8,728.1,386.2z"/>
	<text>	<textPath  xlink:href="#SVGID_x5F_1_x5F_" startOffset="100%">
<tspan  style="font-family:'TrajanPro3-Regular'; font-size:60px; letter-spacing:200;">Samuel´s shop.................................................. Sho</tspan>		<linearGradient id="SVGID_2_" gradientUnits="userSpaceOnUse" x1="-2625.3379" y1="1653.12" x2="-2624.3379" y2="1653.12">
			<stop  offset="0" style="stop-color:#FFFFFF"/>
			<stop  offset="1" style="stop-color:#000000"/>
		</linearGradient>
<tspan  style="fill:url(#SVGID_2_); font-family:'TrajanPro3-Regular'; font-size:60px; letter-spacing:200;">p.....................................................</tspan>	</textPath>
</text>
	<path class="st5" d="M471.4,582.3c-1.9-5.3-0.8-11.1-2.6-15.8c-4.2-11.2-4.8-22.9-5.8-34.4c-0.7-8-3.8-16.5,0.6-24.6
		c0.6-1.1,0.1-2.8-1.2-3.6c-2.4-1.4-2.7-3.7-3.1-6.1c-0.9-5.7-1.7-11.4-2.6-17c-3.1-17.7-1.2-35.2,0.4-52.8c0.5-5,4.1-2.9,12-11.6
		c4.7-5.2,7.4-9.1,9-12c-0.5-0.7-0.9-1.7-0.9-2.9c0-5,1.3-9.8,2.7-14.6c0.6-2.1,1.6-4,2.5-5.9c0.1-0.8,0.3-1.6,0.5-2.3
		c-0.7-6.1-1.6-11.6-3.2-11.7c-3.9-0.4-7.5,30.9-19.2,33c-1.6,0.3-9.4,1.9-11.6,4.6c-0.9,1.1-1.2,3.1-3.4,2.1c-1.8-0.8-3.3-2-3.6-4
		c-0.7-4.3,0.9-8,4.2-10.3c2-1.4,3-3.1,4.3-4.8c3-4.2,1.1-9,2.2-13.4c2.5-9.8-3.4-17.4-13.4-18.4c-2.6-0.3-5.1,0.1-7.6,0.1
		c-4.4,0.1-8.1,2.4-10.7,5.4c-2.8,3.1-3.7,7-3.4,11.7c0.4,6.7,0.8,12.8,3.8,19.2c5,10.5,1.8,15.5-9.8,18.1c-0.2,0-0.3,0.1-0.5,0.1
		c-10,2.2-12.2,5.4-14.6,15.3c-2.6,10.8,1.2,22.3-3.7,32.7c-0.2,0.5,0,1.4,0.2,2c1.5,6.3,2.6,12.8,5.3,18.7c1.3,2.9,2.1,5.9,1.5,9
		c-1,5.7,1.8,10.3,5.1,14c2.4,2.7,2.9,5.2,2.4,8.1c-1.1,7.7-0.6,15.6,0.3,23.1c2.5,21.6-2.3,42.6-3.6,63.8c-0.1,1.2-0.7,2.3-1.1,3.4
		c-2.7,7.1-2.1,8.3,5.2,10.1c-2.3,3.5-4.7,6.7-8.2,9c-3.5,2.3-3.6,4.7-0.2,7.1c8.7,2.9,14.9,1.5,18.6-4.2c1.7-1.8,4.8-2.3,5.3-5.2
		c0.6-3.2-2.1-7.7,3.8-8.7c0.2,0,0.2-1.3,0.3-1.9c1.6-9.4,1.4-18.9,1.4-28.5c0-19.5,1.6-39,2.7-58.6c0.2-3,0.4-6.1,2.3-8.6
		c1.6,0.1,1.5,1.3,1.8,2.3c3.9,13.6,5.5,27.8,9.2,41.5c1.6,5.9-0.8,11.5,0.2,17.3c1.6,10.2,4.4,20.2,7.5,30.1c1,3.2,2,6.2,5,8.1
		c3.5,2.2,7.1,4.2,10.7,0.8c3.5-3.3,1.9-7-0.1-10.3c-1.9-3.1-4.2-6.1-4.4-10C469.3,590.3,473,586.9,471.4,582.3z"/>
	<g>
		<path class="st5" d="M377.4,339.4l3,2.5c3-1.2,6-2.5,9.1-3.5c2.2-0.7,4.5-1.4,6.7-2.2c-1.9-1.7-3.9-3.4-6.2-5.2l-4.2-3.3
			c-14.4-11.2-18.2-16.6-18.2-25.1c0-10.9,8.1-17.4,18.4-17.4c13.8,0,17.8,6.3,18.7,7.9c0.9,1.6,1.8,5.7,1.9,7.5
			c0.1,1.2,0.3,1.9,1.2,1.9c0.7,0,1-1,1-3.4c0-10.2,0.6-15.1,0.6-15.9c0-0.7-0.3-1-1.5-1c-1.2,0-2.4-0.1-5.2-0.7
			c-3.7-0.9-8.1-1.5-13.9-1.5c-19,0-31,10.9-31,26.9C357.9,317.1,361.5,326.4,377.4,339.4z"/>
		<path class="st5" d="M397.2,348.3c-2.1,0.8-4.3,1.6-6.4,2.4c7.8,7.3,10.6,12.8,10.6,21.1c0,9.6-7,19.9-21.4,19.9
			c-10,0-19.9-4.2-22.1-15.3c-0.4-2.1-0.4-4.2-0.4-5.5c0-1.2-0.1-1.6-1-1.6c-0.7,0-1,0.7-1.2,2.4c-0.1,2.4-0.7,8.4-0.7,15.9
			c0,4,0.1,4.6,2.2,5.7c6.1,3,13,4,20,4c8.1,0,16.2-1.8,22.6-6.3c10.3-7.3,12.7-18.7,12.7-24.8c0-6.8-1.4-12.7-5.8-19.1
			C403.1,347.2,400.1,347.7,397.2,348.3z"/>
	</g>
	<text transform="matrix(1 0 0 1 206.0835 399.4118)" class="st6 st7 st8">S</text>
	<path class="st0" d="M425.1,311.7c0.2-0.3,0.5-0.6,0.8-1C425.6,311.1,425.3,311.4,425.1,311.7z"/>
	<path class="st0" d="M425.9,310.7c0,0,0.1-0.1,0.1-0.1C425.9,310.6,425.9,310.6,425.9,310.7z"/>
	<path class="st1" d="M266.1,341.5c0.7,0.6,1.4,1.3,2.1,1.9c-0.1,0.1-0.3,0.3-0.4,0.4c-0.8-0.3-0.9-1.3-1.6-1.7
		C266.1,342,266.1,341.8,266.1,341.5z"/>
	<path class="st2" d="M425.3,311.9c-0.1-0.1-0.2-0.2-0.3-0.3c0.4-0.6,0.9-1.2,1.6-2.1C426.3,310.6,425.8,311.3,425.3,311.9z"/>
	<path class="st3" d="M540.4,582.9c-0.5,0.3-0.9,0.5-1.4,0.6c0.1,0.6,0.3,1.2,0.4,1.9c0.2-0.3,0.5-0.7,0.9-0.9
		c0.1-0.2,0.1-0.4,0.2-0.6c0.2-0.5,0.5-0.9,0.7-1.3c-0.1,0-0.2,0-0.3-0.1C540.8,582.6,540.6,582.8,540.4,582.9z"/>
	<g>
		<path class="st9" d="M563.8,391.5c-0.8,0.8-1.4,1.5-1.9,2c-0.4,0.5-1,1.1-1.5,1.9c-0.6,0.8-1,1.6-1.3,2.3
			c-0.4,0.9-0.4,1.5-0.2,1.8c0.1,0.1,0.2,0.1,0.3,0.1c0.1,0,0.3,0,0.5-0.1c0.2-0.1,0.3-0.1,0.5-0.2c0.1-0.1,0.3-0.2,0.5-0.3
			c0.2-0.1,0.4-0.2,0.5-0.3c0.1-0.1,0.3-0.2,0.4-0.3c0.2-0.1,0.3-0.2,0.3-0.2c1.1-0.7,2.1-1.5,3-2.4c1.9-1.7,3.6-3.6,5.2-5.8
			c0.9-1.3,1.7-2.6,2.2-3.7c0.4-0.8,0.6-1.5,0.7-2.3c-0.4,0.2-0.7,0.5-1.1,0.7C568.9,386.8,566.3,389.1,563.8,391.5z"/>
		<path class="st9" d="M602.7,387.3c-2.2-4.2-4.2-8.5-6.2-12.8c-3.3-6.9-6.7-13.9-10-20.8c-0.5-1-1.2-1.3-2.3-1.1
			c-1.2,0.3-2.4,0.5-3.7,0.8c-1.7,0.4-1.9,0.3-2.5-1.4c-0.7-1.9-1.5-3.9-2.3-5.8c-3.8-9.2-7.8-18.3-13.1-26.8c-1-1.6-1-1.6,0.8-2.5
			c2.4-1.2,4.8-2.4,7.1-3.7c1.2-0.7,1.8-1.6,1.6-3.1c-0.2-1.2-0.2-2.5,0-3.7c0.3-2,0-3.9-0.7-5.8c-1.5-3.8-3.4-7.3-5.6-10.8
			c-5.2-8.2-10.2-16.5-13.9-25.5c-1.5-3.7-3.8-7-6.8-9.6c-3.2-2.8-6.8-5-11.3-4.6c-1.9,0.2-3.8,0.5-5.7,0.9c-1.5,0.3-2.9,0.6-4.5,1
			c1.4-4.3,0.9-8.7,1.8-13c0.6,1,1.3,1.7,2.1,2.3c3.3,2.3,7.5,0.8,8.3-2.9c0.5-2.2-0.9-4.8-3-5.6c-0.5-0.2-1-0.4-1.4,0
			c-0.3,0.4,0,0.9,0.3,1.3c0.2,0.3,0.4,0.6,0.6,0.9c0.7,1.6-0.1,2.8-1.9,2.7c-1.4-0.1-2.5-0.9-3.3-2c-1-1.5-1.4-3.2-1.2-5
			c0.4-3.2,0.3-6.5,0.2-9.7c-0.1-4.1-0.7-8.1-2.3-11.9c-1.7-3.8-4.4-6.6-8.5-7.7c-0.8-0.2-1.4-0.7-1.9-1.3c-0.9-1.1-1.8-2.2-3-3.1
			c-2.5-1.9-5.2-3.1-8.3-3.3h-5.8c-0.1,0.1-0.2,0.1-0.4,0.1c-4.3,0-7.8,1.9-11.1,4.5c-0.5,0.4-1.1,0.8-1.1,1.5
			c0,0.2,0.2,0.4,0.4,0.5c0.8,0.1,1.3-0.4,1.9-0.8c2-1.2,4.1-2.2,6.2-2.9c-0.5,0.2-1,0.4-1.5,0.7c-6.7,3.1-11.9,7.8-14.6,14.9
			c-1.5,4.1-2.7,8.2-3.7,12.4c-1.2,4.9-2.1,9.8-3.4,14.7c-0.9,3.3-2.6,6.1-5.1,8.3c-1.6,1.4-3.3,2.9-5.1,4.1
			c-5.6,3.8-7.9,9.4-8.6,15.9c0,0.5-0.3,1.2,0.3,1.3c0.7,0.2,0.8-0.6,1-1.1c0-0.1,0.1-0.2,0.1-0.3c1.1-4,3.3-7.3,6.4-10
			c2-1.7,4.1-3.2,6.7-4.5c-1,2.7-2.1,5.1-3.9,7c-1.9,2-4.1,3.6-6.2,5.3c-0.4,0.3-1,0.6-0.7,1.2c0.3,0.5,0.9,0.2,1.4,0.1
			c0.5-0.2,1-0.3,1.4-0.6c2.4-1.3,4.8-2.6,6.7-4.4c-0.4,0.4-0.6,0.9-0.9,1.5c-2,4.6-4.9,8.5-8.2,12c-2.7,2.9-5.8,5.3-9.9,6
			c-0.5,0.1-1,0.1-1.5,0.2c-0.3,0.1-0.6,0.2-0.6,0.5c-0.1,0.4,0.3,0.6,0.6,0.7c1.7,0.7,3.5,0.7,5,0.3c-1.3,0.9-2.9,2-4.8,2.5
			c-2.3,0.6-4.5,0.9-6.6-0.7c-0.3-0.3-0.8-0.7-1.2-0.3c-0.4,0.4,0,0.9,0.2,1.3c1.2,2,3,3.1,5.4,3.2c1.9,0.1,3.9,0,5.8-0.8
			c-2.2,3.7-3.2,7.6-3.8,11.6c-0.1,0.6-0.4,1.5,0.4,1.7c0.7,0.2,0.9-0.7,1.2-1.3c1-2.2,1.9-4.3,2.9-6.3c-0.1,0.3-0.2,0.7-0.3,1
			c-0.5,2.1-1.3,4.1-1.8,6.1c-0.8,3.1-2.8,5.2-5.7,6.6c-1.6,0.8-3.3,1.5-4.9,2.3c-5.1,2.8-8.6,6.6-8.1,13c0.2,2.3,1.1,4.2,3,5.7
			c0.4,0.3,0.8,0.6,1.4,0.6c0.5,0,0.8-0.3,0.6-0.8c-0.1-0.3-0.3-0.6-0.6-0.8c-2-2-2.2-4.4-1.3-6.8c1.6-4.4,5.5-6.3,9.5-8.2
			c-0.4,1.3-1,2-1.8,2.6c-1.1,0.8-2.2,1.5-3.5,1.9c-0.4,0.1-1.1,0.2-1,0.8c0.1,0.5,0.7,0.5,1.2,0.5c0.2,0,0.4,0,0.6,0
			c3.3,0.1,6.1-1.3,8.5-3.4c6.2-5.1,9.4-12.1,12.1-19.2c-0.1,0.5-0.3,1.2-0.4,1.9c-0.4,4.2-1.1,8.3-2.3,12.4
			c-1.7,6-4.1,11.6-9.7,15.1c-0.3,0.2-0.8,0.5-0.5,1c0.2,0.4,0.7,0.4,1.1,0.3c2-0.4,3.9-1.1,5.3-2.6c-1.4,2.9-3,5.6-6.2,6.8
			c-0.3,0.1-0.6,0.3-0.5,0.7c0.1,0.3,0.5,0.4,0.8,0.4c0.9,0.1,1.7-0.2,2.8-0.2c-2.3,2.4-4.7,4.1-7.8,4.7c-0.8,0.1-1.6,0.2-2.3,0
			c-1.6-0.3-2.3-1.4-2-3c0.2-1.1,0.9-1.9,1.8-2.5c0.3-0.2,0.8-0.6,0.6-1c-0.2-0.5-0.8-0.3-1.2-0.2c-3.2,0.8-4.6,3.8-3.3,7
			c0.2,0.4,0.7,0.9,0.3,1.4c-0.4,0.5-1,0.3-1.6,0.2c-0.8-0.1-1.5-0.4-2.3-0.7c-0.5-0.2-0.9-0.4-1.5-0.3c-0.2,0.1-0.3,0.3-0.3,0.5
			c0.2,0.8,0.8,1.1,1.4,1.4c2.6,1.3,5.4,1.7,8.2,1.5c7-0.5,12.6-3.6,16.8-9.3c0,0.1-0.1,0.1-0.1,0.2c-2.7,3.8-5.9,6.9-10.5,8.3
			c-0.1,0-0.2,0.1-0.3,0.1c-0.4,0.2-0.8,0.4-0.7,0.9c0.1,0.5,0.6,0.4,1,0.4c2.2-0.1,4.2-0.8,6.1-2.1c0.8-0.6,1.6-1.3,2.6-1.9
			c0.3,0.5,0.3,0.9,0.4,1.3c0.6,2.7,1.7,5.1,3.5,7.3c0.5,0.5,1.1,1.4,1.8,0.9c0.7-0.5-0.1-1.2-0.4-1.8c-1.6-2.7-1.9-5.6-0.8-8.5
			c1.7-4.5,4.6-8.3,7.7-11.9c0.5-0.6,0.8-0.5,1,0.3c0.3,1.6,0.5,3.2,0.8,4.8c0.5,3.8,0.7,7.6-1.2,11.2c-0.3,0.6-0.4,1.4-0.2,2
			c0.7,2,0.1,3.8-0.9,5.5c-1,1.6-1.3,3.4-1.3,5.3c0,4.7,0.3,9.3,0.9,13.9c0.9,7.7,2.3,15.4,4.7,22.9c1.2,3.8,2.8,7.4,4.3,11.1
			c0.2,0.5,0.4,1,0.5,1.6c0.4,0.7,0.7,1.5,0.9,2.2c0,0.1,0,0.1,0.1,0.2c0.1,0.4,0.2,0.8,0.3,1.2c1.9,3.1,3.8,6.1,4.6,9.6
			c1.7,2.8,3,5.8,4.3,8.9c2.8,7.1,4.3,14.2,5,21.8c1.4,14.7,1.9,29.4,2.8,44.2c0.4,6.7,0.9,13.5,2.6,20.1c0.6,2.3,1.3,4.9,1,7.2
			c0,0.1,0,0.3,0,0.4c0,0.3,0,0.6,0,0.9c0.3,0.3,0.3,0.8,0.4,1.7c0.1,2.2,1,3.7,3.3,4.1c1.3,0.2,1.9,1.1,2.1,2.4
			c0.9,4.7,1.9,9.3,2.9,14c0.8,3.8,1.6,7.7,2.4,11.5c0.3,1.4,0.1,1.7-1.3,2.1c-0.2,0.1-0.4,0.1-0.7,0.2c-1.2,0.4-1.4,0.7-1,1.9
			c0.2,0.6,0.5,1.2,0.7,1.8c1.6,3.6,2.9,7.3,3.6,11.2c0.5,2.6,0.5,5.2-0.5,7.8c-0.2,0.4-0.3,0.9-0.3,1.3c0.3,2.3-0.5,4.5-1.2,6.6
			c-1.2,3.7-2.7,7.4-3.8,11.1c-0.5,1.7-0.5,3.3,0.2,4.9c0.8,1.9,1.9,3.7,3.2,5.3c1.5,1.8,3.1,3.5,5.6,3.7h2.2c2.7-0.3,4.4-2,5.7-4.2
			c1.8-2.9,2.6-6.2,2.9-9.6c0.3-3.3,0.2-6.6,0-9.9c-0.2-5.5,0-11.1-0.3-16.6c-0.2-4.5-0.1-8.9-0.3-13.4c-0.1-1.3-0.4-2.3-1.7-2.7
			c-0.8-0.3-1-0.8-1.1-1.6c-0.2-4.4-0.4-8.8-0.5-13.3c-0.1-4.1-0.4-8.3-0.4-12.4c0-0.8,0.1-1.5,0.8-2.1c0.9-0.8,1.1-1.8,1-3
			c-0.5-5.7-1-11.4-1.6-17.1c-0.2-2.8-0.3-5.5-0.8-8.1c0.3,0.9,0.6,1.8,1,2.8c1.4,3.8,2.9,7.6,4.4,11.4c1.8,4.7,3.6,9.5,5.5,14.2
			c0.4,1,0.9,1.9,2.1,1.9c1.1,0,1.6,0.6,2.1,1.5c1.7,3.4,3.3,6.8,4.9,10.2c1.1,2.2,2.3,4.4,3.2,6.8c0.2,0.6,0.4,1.2-0.1,1.8
			c-1.6,2.1-1.6,2.1,0,4.2c4.5,6.2,6,13.1,5.3,20.6c-0.5,6.2-1.7,12.3-3.2,18.4c-0.2,0.7-0.3,1.4-0.2,2.1c0.4,2.6,1.1,5.2,2.3,7.5
			c1.9,3.9,5.2,5.1,9.3,3.5c5.4-2.1,9-7.5,8.4-13.5c-0.6-6.3-0.2-12.7-0.8-19.1c-0.2-2.7-0.3-5.4-1.7-7.8c-1.6-2.7-2.1-5.7-2.5-8.7
			c-0.3-2.9-0.3-5.7-0.3-8.6c0-1.4-0.4-2.3-1.8-2.7c-0.7-0.2-1.1-0.6-1.2-1.3c-1.2-5.2-2.4-10.3-3.5-15.5c-0.1-0.5-0.2-1.1,0.4-1.4
			c1.8-1,1.6-2.5,1.3-4.1c-1.2-6.3-2.6-12.5-4.3-18.6c-2.1-7.2-4.6-14.2-8.3-20.8c-1.9-3.3-3.4-6.7-4.5-10.4
			c-0.9-3.1-1.5-6.3-1.1-9.5c0.6-5.4,2.3-10.4,3.9-15.5c4.2-12.9,8.4-25.7,11.5-38.9c0.3-1.3,1-1.8,2.2-2.1
			c5.4-1.2,10.9-2.6,16.3-3.8c12.8-3,25.6-6,38.4-9c0.5-0.1,1.1-0.3,1.5-0.7v-0.6C604,390.2,603.5,388.7,602.7,387.3z M488.3,330.9
			c-4.1,3.7-6.8,8.3-9.3,13.4c-2-13.4-2.1-26.5,0-39.8c1.9,2,3.5,4.1,5.1,6.2c3.1,4.3,5.7,8.8,6.1,14.2
			C490.4,327.2,490,329.4,488.3,330.9z M510.3,434c-0.5-4.1-1.1-8.9-1.7-13.7c-1-8-2-15.9-2.8-23.9c-0.5-4.7,1-8.9,4.5-12.4
			C510.3,401,510.3,417.9,510.3,434z M546.7,353.2c0.1,2.4,0.3,4.8,0.5,7.2c0.1,0.8-0.2,1.2-1,1.2c-0.8,0-1.8,1.2-2.4-0.2
			c-3.7-8.6-8.4-16.6-13.2-24.5c-2.3-3.8-1.5-7.5-0.5-11.3c0.7-2.7,0.7-2.6,3.5-2.8c4.2-0.2,8.4-0.6,12.5-1.2c1.2-0.2,1.6,0,1.1,1.1
			C545.9,332.9,546.2,343,546.7,353.2z M580.3,368.7c1,0,1.8,0.1,2.4,0.3c0.5,0.1,0.7,0.1,0.9,0.1c0.2,0,0.3,0.1,0.3,0.2
			c0,0.1-0.1,1-0.1,2.8c0,0.4-0.1,0.6-0.2,0.6c-0.2,0-0.2-0.1-0.2-0.3c0-0.3-0.2-1-0.3-1.3c-0.2-0.3-0.9-1.4-3.3-1.4
			c-1.8,0-3.2,1.1-3.2,3c0,1.5,0.7,2.4,3.2,4.4l0.7,0.6c0.4,0.3,0.8,0.6,1.1,0.9c-0.4,0.1-0.8,0.2-1.2,0.4c-0.5,0.2-1.1,0.4-1.6,0.6
			l-0.5-0.4c-2.8-2.3-3.4-3.9-3.4-5.7C574.9,370.6,577,368.7,580.3,368.7z M572.4,387.7c-0.6,1-1.1,1.8-1.6,2.5s-1.1,1.4-1.8,2.2
			c-1.6,2-3.5,3.8-5.5,5.4c-1.3,1-2.3,1.7-3,2c-1,0.6-1.7,0.6-2.1,0.2c-0.8-0.8-0.5-2.2,0.9-4.3c1.3-2,3.4-4.3,6.1-6.7
			c2.4-2.2,5-4.1,7.7-5.8c0-0.2,0-0.3,0-0.5c0-0.6-0.1-1.1-0.3-1.6c-0.2-0.5-0.4-0.9-0.6-1.3c-0.2-0.4-0.6-0.7-1-1.1
			c-0.4-0.3-0.8-0.6-1.2-0.8s-0.9-0.4-1.5-0.6c-0.6-0.2-1.1-0.4-1.5-0.5c-0.4-0.1-1-0.2-1.7-0.4c-0.7-0.1-1.2-0.2-1.6-0.3
			c-0.4-0.1-0.9-0.1-1.6-0.2s-1.2-0.2-1.4-0.2c-1.1-0.1-1.9-0.3-2.6-0.4c-0.7-0.1-1.5-0.3-2.5-0.6s-1.9-0.6-2.6-1
			c-0.7-0.4-1.4-0.8-2.1-1.4c-0.7-0.6-1.3-1.3-1.7-2.1c-0.6-1-0.9-2.1-0.9-3.3s0.1-2.3,0.4-3.5c0.3-1.1,0.8-2.2,1.4-3.2
			c0.6-1,1.2-1.9,2-2.8c1.5-1.8,3.3-3.4,5.4-4.9c2.1-1.4,4.2-2.6,6.5-3.6c2.8-1.1,5.1-1.5,7.2-1.1c1.1,0.2,2,0.6,2.8,1.3
			c0.8,0.6,1.2,1.4,1.4,2.4c0,0.1,0,0.2-0.1,0.3c-0.1,0.1-0.2,0.1-0.3,0.1c-0.1,0-0.2-0.1-0.2-0.2c-0.2-1.2-0.9-2.1-2.1-2.7
			c-2.1-1-4.8-0.9-8.1,0.5c-2.3,0.9-4.7,2.2-7,4c-5.6,4.1-8.4,8.4-8.4,12.9c0,1.2,0.3,2.4,0.9,3.5c0.6,1.1,1.4,2,2.5,2.7
			c1.5,1,3.8,1.8,6.9,2.3c0.5,0.1,1.3,0.2,2.5,0.4c1.2,0.2,2.3,0.3,3.1,0.5c0.9,0.2,1.7,0.4,2.5,0.6c2.6,0.7,4.4,1.8,5.3,3.2
			c0.6,0.8,0.9,1.7,0.9,2.7c0,0.2,0,0.4,0,0.6c0,0,0.1-0.1,0.1-0.1c3.3-2,6.1-3.2,8.5-3.7c0.1,0,0.2,0,0.3,0.1
			c0.1,0.1,0.1,0.2,0.1,0.3c0,0.1-0.1,0.2-0.2,0.2c-0.9,0.2-1.5,0.4-1.9,0.5c-2.1,0.7-4.4,1.8-6.9,3.4c0,0.5-0.1,1-0.2,1.4
			C573.3,385.8,572.9,386.7,572.4,387.7z M582.1,388c-1.1,0.8-2.5,1.1-3.9,1.1c-1.2,0-2.4-0.2-3.5-0.7c-0.4-0.2-0.4-0.3-0.4-1
			c0-1.3,0.1-2.3,0.1-2.8c0-0.3,0.1-0.4,0.2-0.4c0.2,0,0.2,0.1,0.2,0.3c0,0.2,0,0.6,0.1,1c0.4,1.9,2.1,2.7,3.9,2.7
			c2.5,0,3.7-1.8,3.7-3.5c0-1.4-0.5-2.4-1.8-3.7c0.4-0.1,0.7-0.3,1.1-0.4c0.5-0.1,1-0.2,1.6-0.2c0.8,1.1,1,2.1,1,3.3
			C584.3,384.8,583.9,386.7,582.1,388z"/>
	</g>
</g>
</svg>
